<svg width="86" height="79" viewBox="0 0 86 79" fill="none" xmlns="http://www.w3.org/2000/svg">
<g opacity="0.7">
<path d="M31.4284 27.5584C36.6972 27.5584 40.9841 23.194 40.9841 17.8285C40.9841 12.4631 36.6972 8.09863 31.4284 8.09863C26.1596 8.09863 21.8727 12.4631 21.8727 17.8285C21.8727 23.194 26.1596 27.5584 31.4284 27.5584ZM31.4284 11.9906C34.3554 11.9906 36.7371 14.6091 36.7371 17.8285C36.7371 21.048 34.3554 23.6665 31.4284 23.6665C28.5014 23.6665 26.1196 21.048 26.1196 17.8285C26.1196 14.6091 28.5014 11.9906 31.4284 11.9906ZM14.4404 43.1263C19.7092 43.1263 23.9962 38.7618 23.9962 33.3964C23.9962 28.0309 19.7092 23.6665 14.4404 23.6665C9.1716 23.6665 4.88469 28.0309 4.88469 33.3964C4.88469 38.7618 9.1716 43.1263 14.4404 43.1263ZM14.4404 27.5584C17.3674 27.5584 19.7492 30.177 19.7492 33.3964C19.7492 36.6158 17.3674 39.2343 14.4404 39.2343C11.5134 39.2343 9.13168 36.6158 9.13168 33.3964C9.13168 30.177 11.5134 27.5584 14.4404 27.5584ZM71.7748 43.1263C77.0436 43.1263 81.3305 38.7618 81.3305 33.3964C81.3305 28.0309 77.0436 23.6665 71.7748 23.6665C66.506 23.6665 62.2191 28.0309 62.2191 33.3964C62.2191 38.7618 66.506 43.1263 71.7748 43.1263ZM71.7748 27.5584C74.7018 27.5584 77.0835 30.177 77.0835 33.3964C77.0835 36.6158 74.7018 39.2343 71.7748 39.2343C68.8478 39.2343 66.4661 36.6158 66.4661 33.3964C66.4661 30.177 68.8478 27.5584 71.7748 27.5584ZM54.7868 27.5584C60.0557 27.5584 64.3426 23.194 64.3426 17.8285C64.3426 12.4631 60.0557 8.09863 54.7868 8.09863C49.518 8.09863 45.2311 12.4631 45.2311 17.8285C45.2311 23.194 49.518 27.5584 54.7868 27.5584ZM54.7868 11.9906C57.7139 11.9906 60.0956 14.6091 60.0956 17.8285C60.0956 21.048 57.7139 23.6665 54.7868 23.6665C51.8598 23.6665 49.4781 21.048 49.4781 17.8285C49.4781 14.6091 51.8598 11.9906 54.7868 11.9906ZM40.9841 60.6401H45.2311V54.8022H51.6016V50.9102H45.2311V45.0723H40.9841V50.9102H34.6136V54.8022H40.9841V60.6401Z" fill="black"/>
<path d="M33.3463 70.3701H52.8689C61.5514 70.3701 68.5896 63.9203 68.5896 55.9636C68.5896 52.692 67.3749 49.5185 65.1444 46.9638L56.3217 36.8572C54.8489 35.1701 52.9809 33.8083 50.856 32.8724C48.7311 31.9365 46.4038 31.4505 44.0462 31.4504H42.1699C39.8123 31.4505 37.4849 31.9365 35.3601 32.8724C33.2352 33.8083 31.3672 35.1701 29.8944 36.8572L21.0708 46.9638C18.8406 49.5182 17.6256 52.6922 17.6257 55.9636C17.6257 63.9203 24.6638 70.3701 33.3463 70.3701ZM26.0449 50.6113L34.8684 40.5039C35.7422 39.4982 36.8528 38.6866 38.1172 38.1297C39.3816 37.5729 40.7671 37.2853 42.1699 37.2884H44.0462C46.9019 37.2884 49.563 38.4606 51.3476 40.5039L60.1703 50.6106C61.4944 52.1311 62.2167 54.0182 62.2191 55.9636C62.2191 60.6884 58.0247 64.5321 52.8689 64.5321H33.3463C28.1905 64.5321 23.9961 60.6884 23.9961 55.9636C23.9961 54.0254 24.7241 52.1245 26.0449 50.6113Z" fill="black"/>
</g>
</svg>
