<svg width="130" height="121" viewBox="0 0 130 121" fill="none" xmlns="http://www.w3.org/2000/svg">
<rect width="130" height="120.571" fill="#EAF8F2"/>
<g opacity="0.7">
<path d="M52.9876 47.5399C58.6323 47.5399 63.225 42.8076 63.225 36.9899C63.225 31.1723 58.6323 26.4399 52.9876 26.4399C47.3428 26.4399 42.75 31.1723 42.75 36.9899C42.75 42.8076 47.3428 47.5399 52.9876 47.5399ZM52.9876 30.6599C56.1234 30.6599 58.675 33.4992 58.675 36.9899C58.675 40.4807 56.1234 43.3199 52.9876 43.3199C49.8517 43.3199 47.3001 40.4807 47.3001 36.9899C47.3001 33.4992 49.8517 30.6599 52.9876 30.6599ZM34.7875 64.42C40.4323 64.42 45.025 59.6876 45.025 53.8699C45.025 48.0523 40.4323 43.3199 34.7875 43.3199C29.1428 43.3199 24.55 48.0523 24.55 53.8699C24.55 59.6876 29.1428 64.42 34.7875 64.42ZM34.7875 47.5399C37.9234 47.5399 40.475 50.3792 40.475 53.8699C40.475 57.3607 37.9234 60.2 34.7875 60.2C31.6517 60.2 29.1 57.3607 29.1 53.8699C29.1 50.3792 31.6517 47.5399 34.7875 47.5399ZM96.2126 64.42C101.857 64.42 106.45 59.6876 106.45 53.8699C106.45 48.0523 101.857 43.3199 96.2126 43.3199C90.5678 43.3199 85.9751 48.0523 85.9751 53.8699C85.9751 59.6876 90.5678 64.42 96.2126 64.42ZM96.2126 47.5399C99.3484 47.5399 101.9 50.3792 101.9 53.8699C101.9 57.3607 99.3484 60.2 96.2126 60.2C93.0767 60.2 90.5251 57.3607 90.5251 53.8699C90.5251 50.3792 93.0767 47.5399 96.2126 47.5399ZM78.0126 47.5399C83.6573 47.5399 88.25 42.8076 88.25 36.9899C88.25 31.1723 83.6573 26.4399 78.0126 26.4399C72.3678 26.4399 67.7751 31.1723 67.7751 36.9899C67.7751 42.8076 72.3678 47.5399 78.0126 47.5399ZM78.0126 30.6599C81.1484 30.6599 83.7001 33.4992 83.7001 36.9899C83.7001 40.4807 81.1484 43.3199 78.0126 43.3199C74.8767 43.3199 72.3251 40.4807 72.3251 36.9899C72.3251 33.4992 74.8767 30.6599 78.0126 30.6599ZM63.225 83.41H67.7751V77.08H74.6001V72.86H67.7751V66.53H63.225V72.86H56.4V77.08H63.225V83.41Z" fill="#B8682A"/>
<path d="M55.0422 93.96H75.9577C85.2597 93.96 92.7999 86.9666 92.7999 78.3393C92.7999 74.7919 91.4986 71.3509 89.109 68.5809L79.6568 57.6224C78.0789 55.7932 76.0776 54.3166 73.8012 53.3018C71.5247 52.287 69.0313 51.7601 66.5055 51.76H64.4953C61.9695 51.7601 59.4761 52.287 57.1996 53.3018C54.9232 54.3166 52.9219 55.7932 51.344 57.6224L41.8909 68.5809C39.5016 71.3507 38.1999 74.7921 38.2 78.3393C38.2 86.9666 45.7402 93.96 55.0422 93.96ZM47.2199 72.5359L56.6729 61.5766C57.6091 60.4861 58.7989 59.6061 60.1535 59.0023C61.5081 58.3985 62.9924 58.0866 64.4953 58.09H66.5055C69.5649 58.09 72.4159 59.3611 74.3279 61.5766L83.78 72.5351C85.1986 74.1838 85.9724 76.2299 85.9749 78.3393C85.9749 83.4623 81.4814 87.63 75.9577 87.63H55.0422C49.5185 87.63 45.025 83.4623 45.025 78.3393C45.025 76.2377 45.8048 74.1767 47.2199 72.5359Z" fill="#B8682A"/>
</g>
</svg>
