<svg xmlns="http://www.w3.org/2000/svg" viewBox="0 0 48 48" id="pawprint"><path d="M29.684,34.891a1.722,1.722,0,0,0,1.547,1.852,1.882,1.882,0,0,0,0-3.7A1.722,1.722,0,0,0,29.684,34.891Zm2.095,0c0,.5-.289.852-.548.852s-.547-.35-.547-.852.289-.852.547-.852S31.779,34.389,31.779,34.891Zm-2.036,3.535a1.912,1.912,0,0,0-.242-2.24,1.263,1.263,0,0,0-2.05.221,1.851,1.851,0,0,0-.245,1.16,1.58,1.58,0,0,0,1.442,1.507c.042,0,.084,0,.127-.006A1.312,1.312,0,0,0,29.743,38.426ZM28.2,37.46a.856.856,0,0,1,.1-.529.333.333,0,0,1,.223-.171h.022a.355.355,0,0,1,.233.121.849.849,0,0,1,.212.494h0a.858.858,0,0,1-.1.529.332.332,0,0,1-.223.17C28.489,38.09,28.241,37.835,28.2,37.46Zm5.279-2.569a1.572,1.572,0,1,0,1.547-1.852A1.722,1.722,0,0,0,33.479,34.891Zm2.094,0c0,.5-.288.852-.547.852s-.547-.35-.547-.852.288-.852.547-.852S35.573,34.389,35.573,34.891Zm3.121,1.358a1.273,1.273,0,0,0-.856-.483,1.537,1.537,0,0,0-1.568,1.5h0a1.549,1.549,0,0,0,1.213,1.8q.063.006.126.006a1.578,1.578,0,0,0,1.442-1.507A1.8,1.8,0,0,0,38.694,36.249Zm-1.1,1.824c-.187-.02-.366-.323-.326-.7s.28-.634.467-.614a.289.289,0,0,1,.185.117.811.811,0,0,1,.141.583C38.016,37.835,37.774,38.088,37.59,38.073Zm-1.149,1.379a2.778,2.778,0,0,1-.472-.49c-.858-1.36-1.814-2.05-2.841-2.05s-1.982.69-2.839,2.05a2.825,2.825,0,0,1-.473.49,2.366,2.366,0,0,0-.914,2.834,2.319,2.319,0,0,0,1.656,1.632,2.107,2.107,0,0,0,.466.052,1.8,1.8,0,0,0,1.257-.464,1.224,1.224,0,0,1,1.7,0,1.8,1.8,0,0,0,1.257.464,2.122,2.122,0,0,0,.467-.052,2.321,2.321,0,0,0,1.656-1.632A2.365,2.365,0,0,0,36.441,39.452Zm-.029,2.5a1.377,1.377,0,0,1-.935.99.949.949,0,0,1-.8-.146,2.223,2.223,0,0,0-3.1,0,.946.946,0,0,1-.8.146,1.378,1.378,0,0,1-.936-.99c-.318-.9.083-1.259.638-1.757a3.437,3.437,0,0,0,.651-.7c.456-.722,1.172-1.583,1.994-1.583s1.54.861,1.995,1.583a3.465,3.465,0,0,0,.651.7C36.329,40.694,36.73,41.053,36.412,41.953ZM15.3,23.485a1.448,1.448,0,0,0-1.026.766,2.062,2.062,0,0,0-.2,1.312,1.778,1.778,0,0,0,1.616,1.6,1.248,1.248,0,0,0,.21-.017,1.723,1.723,0,0,0,1.229-2.077A1.723,1.723,0,0,0,15.3,23.485Zm.436,2.669c-.267.048-.6-.257-.677-.752a1.075,1.075,0,0,1,.094-.674.471.471,0,0,1,.308-.256.277.277,0,0,1,.049,0c.248,0,.553.292.629.757C16.223,25.72,15.994,26.113,15.739,26.154ZM14.7,29.042a1.84,1.84,0,0,0,.055-1.183,1.549,1.549,0,0,0-1.79-1.229A1.549,1.549,0,0,0,12.06,28.6a1.843,1.843,0,0,0,.654.989,1.369,1.369,0,0,0,.816.283,1.193,1.193,0,0,0,.32-.043A1.31,1.31,0,0,0,14.7,29.042Zm-.925-.38a.27.27,0,0,1-.463.128.848.848,0,0,1-.29-.453c-.1-.365.028-.693.209-.743a.2.2,0,0,1,.055-.007c.178,0,.414.208.5.537A.859.859,0,0,1,13.777,28.662Zm5.27-5.788a1.447,1.447,0,0,0-1.025.765,2.141,2.141,0,0,0,.407,2.492,1.482,1.482,0,0,0,1.005.416,1.364,1.364,0,0,0,.211-.017,1.725,1.725,0,0,0,1.229-2.078A1.724,1.724,0,0,0,19.047,22.874Zm.436,2.668a.466.466,0,0,1-.373-.143,1.149,1.149,0,0,1-.21-1.283.467.467,0,0,1,.309-.255.252.252,0,0,1,.048,0c.248,0,.554.292.629.756C19.967,25.109,19.739,25.5,19.483,25.542Zm2.78-.43a1.308,1.308,0,0,0-1,.589,1.909,1.909,0,0,0,.123,2.25,1.321,1.321,0,0,0,.993.478l.065,0a1.308,1.308,0,0,0,1-.589,1.909,1.909,0,0,0-.123-2.25A1.328,1.328,0,0,0,22.263,25.112Zm.359,2.158a.337.337,0,0,1-.232.159.328.328,0,0,1-.248-.133.913.913,0,0,1-.057-1.027.34.34,0,0,1,.232-.159h.012a.342.342,0,0,1,.236.133.851.851,0,0,1,.187.5A.864.864,0,0,1,22.622,27.27Zm-1.143,1.705a2.831,2.831,0,0,1-.546-.407C19.868,27.363,18.812,26.842,17.8,27s-1.846,1-2.473,2.481a2.771,2.771,0,0,1-.387.56,2.364,2.364,0,0,0-.445,2.944,2.319,2.319,0,0,0,1.9,1.344c.043,0,.086,0,.128,0a1.889,1.889,0,0,0,1.506-.688.9.9,0,0,1,.782-.474h0a.893.893,0,0,1,.89.2,1.692,1.692,0,0,0,.974.282,2.132,2.132,0,0,0,.794-.154,2.32,2.32,0,0,0,1.37-1.878A2.363,2.363,0,0,0,21.479,28.975Zm.374,2.472a1.376,1.376,0,0,1-.764,1.128.944.944,0,0,1-.809-.015,1.84,1.84,0,0,0-1.634-.374h0a1.845,1.845,0,0,0-1.429.874.95.95,0,0,1-.761.273,1.379,1.379,0,0,1-1.083-.826c-.459-.838-.121-1.257.346-1.837a3.447,3.447,0,0,0,.53-.8c.333-.786.9-1.752,1.713-1.884s1.657.6,2.223,1.241a3.471,3.471,0,0,0,.756.587C21.568,30.218,22.022,30.509,21.853,31.447Zm7.735-18.394a1.32,1.32,0,0,0,.437-.074,1.724,1.724,0,0,0,.843-2.262h0a2.068,2.068,0,0,0-.808-1.053,1.388,1.388,0,0,0-2.142.756,2.064,2.064,0,0,0,.031,1.327A1.842,1.842,0,0,0,29.588,13.053Zm-.721-2.319a.464.464,0,0,1,.258-.3.337.337,0,0,1,.111-.019.55.55,0,0,1,.282.094,1.081,1.081,0,0,1,.407.546c.167.474.011.9-.233.985s-.632-.147-.8-.621A1.072,1.072,0,0,1,28.867,10.734Zm-.914,5.372a1.219,1.219,0,0,0,.528-.118,1.309,1.309,0,0,0,.7-.927,1.907,1.907,0,0,0-.972-2.032,1.311,1.311,0,0,0-1.16-.036,1.279,1.279,0,0,0-.648.741,1.8,1.8,0,0,0,.1,1.36,1.839,1.839,0,0,0,.819.857A1.406,1.406,0,0,0,27.953,16.106Zm-.61-2.04a.294.294,0,0,1,.136-.171.228.228,0,0,1,.1-.021.428.428,0,0,1,.182.049.912.912,0,0,1,.444.927.333.333,0,0,1-.154.236.338.338,0,0,1-.279-.028.86.86,0,0,1-.366-.4A.815.815,0,0,1,27.343,14.066Zm4.992-2.528a1.534,1.534,0,0,0,.827.253,1.352,1.352,0,0,0,.441-.074,1.449,1.449,0,0,0,.875-.935,2.141,2.141,0,0,0-.84-2.38,1.387,1.387,0,0,0-2.142.755,2.14,2.14,0,0,0,.839,2.381Zm.11-2.066a.464.464,0,0,1,.258-.3.337.337,0,0,1,.111-.019.55.55,0,0,1,.282.094,1.149,1.149,0,0,1,.432,1.226.4.4,0,0,1-.651.229,1.072,1.072,0,0,1-.406-.545h0A1.072,1.072,0,0,1,32.445,9.472ZM34.95,11.8a1.617,1.617,0,0,0,1.469,1.326,1.165,1.165,0,0,0,.274-.032,1.313,1.313,0,0,0,.881-.756,1.843,1.843,0,0,0,.1-1.181,1.42,1.42,0,1,0-2.723.643Zm1.21-.964c.187-.046.453.183.539.551a.856.856,0,0,1-.035.537.335.335,0,0,1-.2.2c-.175.053-.452-.182-.54-.55S35.977,10.876,36.16,10.833Zm1.484,5.335a2.364,2.364,0,0,0-1.8-2.368,2.774,2.774,0,0,1-.609-.305c-1.261-1-2.393-1.329-3.36-.988h0c-.967.342-1.638,1.311-1.995,2.878A2.7,2.7,0,0,1,29.59,16a2.551,2.551,0,0,0,1.959,3.978,2,2,0,0,0,1.715-.974.894.894,0,0,1,.685-.6h0a.894.894,0,0,1,.913.04,1.542,1.542,0,0,0,.66.138,2.1,2.1,0,0,0,1.1-.323A2.323,2.323,0,0,0,37.644,16.168ZM36.09,17.413a.947.947,0,0,1-.8.127,1.849,1.849,0,0,0-1.675-.08h0a1.843,1.843,0,0,0-1.252,1.112.954.954,0,0,1-.7.4,1.362,1.362,0,0,1-1.212-.622c-.6-.743-.34-1.215.018-1.868a3.469,3.469,0,0,0,.38-.878c.19-.833.579-1.883,1.354-2.157h0c.772-.276,1.736.3,2.407.83a3.493,3.493,0,0,0,.847.444c.689.285,1.187.49,1.187,1.444A1.378,1.378,0,0,1,36.09,17.413ZM11.771,9.426a1.329,1.329,0,0,0,.643-.162A1.449,1.449,0,0,0,13.127,8.2,2.07,2.07,0,0,0,12.881,6.9a1.724,1.724,0,0,0-2.247-.881,1.723,1.723,0,0,0-.467,2.368A1.9,1.9,0,0,0,11.771,9.426Zm-.656-2.534a.353.353,0,0,1,.168-.039A.91.91,0,0,1,12,7.377a1.075,1.075,0,0,1,.135.667.469.469,0,0,1-.206.343c-.225.121-.648-.044-.889-.484S10.888,7.017,11.115,6.892Zm-.487,2.715a1.308,1.308,0,0,0-1.15.151,1.548,1.548,0,0,0-.2,2.162,1.851,1.851,0,0,0,.946.714,1.471,1.471,0,0,0,.435.068,1.241,1.241,0,0,0,.716-.219,1.549,1.549,0,0,0,.2-2.162A1.836,1.836,0,0,0,10.628,9.607Zm.176,2.055a.327.327,0,0,1-.281.017.846.846,0,0,1-.424-.331c-.216-.31-.2-.662-.05-.77a.247.247,0,0,1,.143-.04.472.472,0,0,1,.138.023.854.854,0,0,1,.423.331C10.969,11.2,10.958,11.554,10.8,11.662Zm3.859-4.119a1.506,1.506,0,0,0,.427.062,1.345,1.345,0,0,0,.651-.164,1.446,1.446,0,0,0,.713-1.062,2.14,2.14,0,0,0-1.212-2.215,1.39,1.39,0,0,0-1.993,1.092,2.061,2.061,0,0,0,.246,1.3A2.006,2.006,0,0,0,14.663,7.543ZM14.442,5.07a.352.352,0,0,1,.17-.041.588.588,0,0,1,.23.052,1.146,1.146,0,0,1,.625,1.14.467.467,0,0,1-.207.343.412.412,0,0,1-.317.019,1.026,1.026,0,0,1-.571-.5h0a1.076,1.076,0,0,1-.135-.667A.468.468,0,0,1,14.442,5.07Zm4.109,3.321a1.2,1.2,0,0,0,.462-.091,1.548,1.548,0,0,0,.654-2.07,1.548,1.548,0,0,0-1.929-1A1.548,1.548,0,0,0,17.084,7.3,1.668,1.668,0,0,0,18.551,8.391Zm-.429-2.234c.173-.073.477.107.622.456s.059.691-.115.763-.477-.107-.622-.456S17.949,6.229,18.122,6.157Zm-.488,2.778c-1.406-.782-2.576-.928-3.476-.434s-1.407,1.557-1.506,3.162a2.736,2.736,0,0,1-.179.657,2.363,2.363,0,0,0,.56,2.924,2.49,2.49,0,0,0,1.681.713,2.063,2.063,0,0,0,.556-.076,1.917,1.917,0,0,0,1.313-1.189.893.893,0,0,1,.579-.707.892.892,0,0,1,.907-.107,1.917,1.917,0,0,0,1.71-.468,2.32,2.32,0,0,0,.668-2.226,2.366,2.366,0,0,0-2.164-2.047A2.789,2.789,0,0,1,17.634,8.935Zm1.826,2.41a1.378,1.378,0,0,1-.345,1.317.941.941,0,0,1-.768.255,1.846,1.846,0,0,0-1.665.191,1.843,1.843,0,0,0-1.058,1.3.955.955,0,0,1-.628.511,1.386,1.386,0,0,1-1.3-.42c-.711-.636-.532-1.144-.284-1.846a3.438,3.438,0,0,0,.234-.928c.053-.853.267-1.952.989-2.347a2.864,2.864,0,0,1,2.509.431,3.5,3.5,0,0,0,.908.3C18.782,10.28,19.306,10.4,19.46,11.345Z" data-name="Paw Print" fill="#ffffff" class="color000000 svgShape"></path></svg>