<svg width="240" height="65" viewBox="0 0 240 65" fill="none" xmlns="http://www.w3.org/2000/svg">
<path d="M71.4525 18.1353C68.0017 18.2888 65.2115 19.628 64.509 21.4678C64.3443 21.899 64.2941 22.3507 64.3598 22.81C64.5039 23.8112 65.1888 24.7291 66.3398 25.4649C68.0058 26.5297 70.446 27.0589 72.8681 26.8806C76.0688 26.6436 78.7003 25.2252 79.4158 23.3514C79.5922 22.8894 79.6451 22.4146 79.5734 21.9402C79.2179 19.582 75.7267 17.9462 71.4525 18.1353Z" fill="#E7C09C"/>
<path d="M72.6409 42.6725C69.1901 42.826 66.3999 44.1652 65.6973 46.005C65.5327 46.4361 65.4824 46.8878 65.5481 47.3472C65.6922 48.3484 66.3772 49.2663 67.5282 50.0021C69.1942 51.0668 71.6343 51.5961 74.0565 51.4178C77.2571 51.1808 79.8886 49.7624 80.6041 47.8885C80.7805 47.4266 80.8334 46.9518 80.7617 46.4774C80.4063 44.1192 76.915 42.4834 72.6409 42.6725Z" fill="#E7C09C"/>
<path d="M64.519 34.6632C64.4761 34.8411 64.4482 35.0226 64.436 35.2024C64.3639 36.2592 64.8287 37.2809 65.7802 38.1575C67.3157 39.5718 70.0074 40.2477 72.8871 40.3505C77.3244 40.5119 80.9412 39.0013 81.5576 36.441C81.5576 36.441 81.6255 36.0729 81.6391 35.8831C81.7169 34.7293 81.2017 33.6072 80.1492 32.6381C78.6227 31.2328 76.1278 30.3372 73.4755 30.2422C69.0883 30.0825 65.1544 32.0244 64.519 34.6632Z" fill="#E7C09C"/>
<path d="M62.894 34.4878C62.6308 26.8563 51.3732 19.4783 40.8152 19.7218C37.6649 19.7945 35.176 21.1565 34.1816 22.4605C32.954 24.071 32.489 25.1968 32.5689 27.5142C32.6639 30.2679 33.8569 30.9841 34.9314 32.2495C35.7082 33.1647 36.3795 33.9551 36.4189 35.0985C36.4584 36.2419 35.8426 37.062 35.1302 38.0114C34.1446 39.3243 33.0028 40.0942 33.0978 42.848C33.1777 45.1653 33.7196 46.2679 35.0562 47.8192C36.1389 49.0754 38.7178 50.3205 41.8681 50.2478C52.426 50.0043 63.1572 42.1193 62.894 34.4878Z" fill="#E7C09C"/>
<path d="M24.9023 35.4004C24.8372 35.4655 24.7721 35.5469 24.707 35.6445C24.6745 35.7096 24.6582 35.7747 24.6582 35.8398C24.6582 35.9701 24.6745 36.084 24.707 36.1816C24.7721 36.2793 24.8047 36.377 24.8047 36.4746C24.8047 36.6374 24.7396 36.849 24.6094 37.1094C24.5117 37.3372 24.4629 37.5488 24.4629 37.7441C24.3001 37.7441 24.1374 37.7604 23.9746 37.793C23.8118 37.8255 23.8118 37.9557 23.9746 38.1836C23.877 38.2487 23.7956 38.3138 23.7305 38.3789C23.6979 38.4115 23.6491 38.4603 23.584 38.5254C23.1608 38.623 22.8516 38.7044 22.6562 38.7695C22.4609 38.8346 22.2656 38.8835 22.0703 38.916C21.875 38.9486 21.6797 39.0137 21.4844 39.1113C21.3216 39.1764 21.1914 39.3392 21.0938 39.5996C20.8659 39.5345 20.6706 39.5345 20.5078 39.5996C20.3776 39.6322 20.2311 39.6973 20.0684 39.7949C19.9382 39.86 19.7917 39.9251 19.6289 39.9902C19.4661 40.0228 19.2871 39.9902 19.0918 39.8926C18.8314 39.9577 18.6686 40.0716 18.6035 40.2344C18.571 40.3646 18.4733 40.4948 18.3105 40.625C18.0827 40.6901 17.8548 40.6901 17.627 40.625C17.3014 40.8529 17.0085 41.1784 16.748 41.6016C15.9668 41.569 15.2018 41.6341 14.4531 41.7969C13.7044 41.9271 12.9557 42.0247 12.207 42.0898C11.9141 42.1224 11.6211 42.1712 11.3281 42.2363C11.0677 42.3014 10.791 42.334 10.498 42.334C10.4329 42.334 10.3516 42.3177 10.2539 42.2852C10.1562 42.2526 10.0586 42.2363 9.96094 42.2363C9.76562 42.2363 9.60286 42.3014 9.47266 42.4316C9.375 42.5293 9.27734 42.5781 9.17969 42.5781C9.01693 42.5781 8.87044 42.5618 8.74023 42.5293C8.61003 42.4967 8.46354 42.4805 8.30078 42.4805C8.00781 42.4805 7.77995 42.5781 7.61719 42.7734C7.45443 42.9362 7.34049 43.1478 7.27539 43.4082C7.24284 43.6361 7.24284 43.8639 7.27539 44.0918C7.34049 44.3197 7.45443 44.4824 7.61719 44.5801C7.55208 44.7428 7.56836 44.9056 7.66602 45.0684C7.76367 45.2311 7.8125 45.3939 7.8125 45.5566C7.7474 45.9473 7.7474 46.1914 7.8125 46.2891C7.8776 46.3542 7.92643 46.4355 7.95898 46.5332C7.89388 46.7936 7.8125 47.0378 7.71484 47.2656C7.64974 47.4609 7.61719 47.6888 7.61719 47.9492C7.61719 48.0469 7.63346 48.1445 7.66602 48.2422C7.69857 48.3398 7.71484 48.4375 7.71484 48.5352C7.42188 48.8281 7.25911 49.0397 7.22656 49.1699C7.19401 49.3001 7.09635 49.4141 6.93359 49.5117C6.80339 49.5768 6.67318 49.6419 6.54297 49.707C6.44531 49.7721 6.36393 49.8861 6.29883 50.0488C6.13607 50.0488 5.94076 50.0651 5.71289 50.0977C5.51758 50.1628 5.32227 50.2116 5.12695 50.2441C4.93164 50.2767 4.7526 50.2604 4.58984 50.1953C4.42708 50.1628 4.32943 50.0163 4.29688 49.7559C4.03646 49.6582 3.79232 49.528 3.56445 49.3652C3.33659 49.2025 3.10872 49.056 2.88086 48.9258C2.84831 48.5026 2.83203 48.1445 2.83203 47.8516C2.83203 47.526 2.96224 47.1842 3.22266 46.8262C3.09245 46.3379 2.89714 45.8333 2.63672 45.3125C2.66927 45.1497 2.73438 45.0033 2.83203 44.873C2.92969 44.7428 3.02734 44.5964 3.125 44.4336C3.125 44.3034 3.10872 44.1732 3.07617 44.043C3.07617 43.8802 3.02734 43.7663 2.92969 43.7012C2.99479 43.5384 2.99479 43.2617 2.92969 42.8711C2.89714 42.4805 2.79948 42.2363 2.63672 42.1387C2.53906 41.9108 2.50651 41.7318 2.53906 41.6016C2.60417 41.4388 2.66927 41.276 2.73438 41.1133C2.66927 40.8529 2.65299 40.5762 2.68555 40.2832C2.7181 39.9902 2.73438 39.6973 2.73438 39.4043C2.73438 39.2415 2.7181 39.0951 2.68555 38.9648C2.65299 38.8346 2.63672 38.6882 2.63672 38.5254C2.63672 38.3301 2.66927 38.151 2.73438 37.9883C2.83203 37.793 2.88086 37.5977 2.88086 37.4023C2.94596 36.6536 2.91341 36.1816 2.7832 35.9863C2.68555 35.7585 2.63672 35.5632 2.63672 35.4004C2.70182 34.9772 2.7181 34.5378 2.68555 34.082C2.65299 33.6263 2.58789 33.3171 2.49023 33.1543C2.55534 32.9915 2.55534 32.8451 2.49023 32.7148C2.45768 32.5521 2.42513 32.3893 2.39258 32.2266C2.45768 31.7057 2.42513 31.2663 2.29492 30.9082C2.19727 30.5501 2.14844 30.1921 2.14844 29.834C2.14844 29.7038 2.16471 29.5736 2.19727 29.4434C2.22982 29.3132 2.24609 29.1829 2.24609 29.0527C2.24609 28.9225 2.22982 28.8086 2.19727 28.7109C2.16471 28.6133 2.14844 28.5156 2.14844 28.418C2.14844 28.2227 2.14844 28.0436 2.14844 27.8809C2.18099 27.6855 2.19727 27.5065 2.19727 27.3438C2.19727 26.9857 2.11589 26.6602 1.95312 26.3672C1.82292 26.0742 1.75781 25.7487 1.75781 25.3906C1.75781 25.2279 1.79036 25.1139 1.85547 25.0488C1.95312 24.9512 2.03451 24.821 2.09961 24.6582C2.32747 24.528 2.44141 24.3978 2.44141 24.2676C2.47396 24.1374 2.52279 24.0234 2.58789 23.9258C2.81576 23.6979 2.94596 23.6003 2.97852 23.6328C3.04362 23.6328 3.10872 23.6003 3.17383 23.5352C3.33659 23.3724 3.41797 23.291 3.41797 23.291C3.45052 23.2585 3.59701 23.2259 3.85742 23.1934C4.08529 23.1934 4.2806 23.2096 4.44336 23.2422C4.63867 23.2747 4.85026 23.2422 5.07812 23.1445C5.20833 23.3724 5.38737 23.5352 5.61523 23.6328C5.8431 23.7305 6.03841 23.8607 6.20117 24.0234C6.42904 24.0885 6.70573 24.0885 7.03125 24.0234C7.38932 23.9258 7.63346 23.9909 7.76367 24.2188C8.02409 24.1211 8.23568 24.056 8.39844 24.0234C8.5612 23.9909 8.77279 24.0397 9.0332 24.1699C9.19596 24.1048 9.34245 24.056 9.47266 24.0234C9.60286 23.9583 9.7168 23.8607 9.81445 23.7305C10.0423 23.8281 10.2702 23.8444 10.498 23.7793C10.7585 23.7142 11.0189 23.6816 11.2793 23.6816C11.4421 23.6816 11.6048 23.7142 11.7676 23.7793C11.9629 23.8444 12.1419 23.8932 12.3047 23.9258C12.5977 23.9909 12.8906 24.0234 13.1836 24.0234C13.5091 23.9909 13.8184 24.0072 14.1113 24.0723C14.2741 24.1048 14.4206 24.1536 14.5508 24.2188C14.7135 24.2839 14.8763 24.349 15.0391 24.4141C15.2669 24.4792 15.446 24.5117 15.5762 24.5117C15.7064 24.4792 15.804 24.6094 15.8691 24.9023C16.2272 24.5768 16.5527 24.4792 16.8457 24.6094C17.1712 24.707 17.5293 24.7559 17.9199 24.7559C17.985 24.8861 18.0501 24.9674 18.1152 25C18.1803 25 18.2292 25.0814 18.2617 25.2441C18.6198 25.2767 18.9453 25.3906 19.2383 25.5859C19.5312 25.7812 19.8568 25.9115 20.2148 25.9766C20.2799 26.1393 20.3125 26.2858 20.3125 26.416C20.3451 26.5462 20.3939 26.6927 20.459 26.8555C20.7194 26.8229 20.931 26.8392 21.0938 26.9043C21.2565 26.9368 21.403 27.002 21.5332 27.0996C21.6634 27.1973 21.7936 27.2786 21.9238 27.3438C22.0866 27.4089 22.2819 27.4414 22.5098 27.4414C22.5749 27.7995 22.7214 28.0762 22.9492 28.2715C23.1771 28.4668 23.3561 28.7272 23.4863 29.0527C23.5189 29.2155 23.6654 29.3457 23.9258 29.4434C23.8932 29.7363 23.9095 29.9154 23.9746 29.9805C24.0397 30.0456 24.1211 30.2083 24.2188 30.4688C24.2513 30.7292 24.3815 31.0059 24.6094 31.2988C24.8372 31.5918 24.9512 31.8685 24.9512 32.1289C24.9512 32.194 24.9023 32.2428 24.8047 32.2754C24.707 32.3079 24.6582 32.4056 24.6582 32.5684C24.6582 32.7311 24.6745 32.8939 24.707 33.0566C24.7721 33.2194 24.8047 33.3822 24.8047 33.5449V34.375C24.8047 34.5378 24.821 34.7168 24.8535 34.9121C24.8861 35.0749 24.9023 35.2376 24.9023 35.4004ZM20.8008 34.4727C20.7357 34.1797 20.6706 33.9355 20.6055 33.7402C20.5729 33.5449 20.6055 33.2845 20.7031 32.959C20.3451 32.7311 20.0846 32.5033 19.9219 32.2754C19.7917 32.0475 19.7591 31.7057 19.8242 31.25C19.6615 31.1523 19.5475 31.071 19.4824 31.0059C19.4499 30.9082 19.3685 30.7943 19.2383 30.6641C19.043 30.5013 18.8477 30.4362 18.6523 30.4688C18.4896 30.5013 18.3919 30.3711 18.3594 30.0781C18.099 30.1107 17.9036 30.0944 17.7734 30.0293C17.6432 29.9316 17.4805 29.8665 17.2852 29.834C17.2201 29.7038 17.1387 29.6224 17.041 29.5898C16.9434 29.5573 16.9108 29.4596 16.9434 29.2969C16.7155 29.2318 16.5853 29.2318 16.5527 29.2969C16.5202 29.3294 16.4225 29.362 16.2598 29.3945C16.1947 29.2318 16.1133 29.1667 16.0156 29.1992C15.9505 29.2318 15.9505 29.1178 16.0156 28.8574C15.918 28.89 15.7878 28.9062 15.625 28.9062C15.4948 28.9062 15.3971 28.8737 15.332 28.8086C15.0391 28.5807 14.86 28.4993 14.7949 28.5645C14.7624 28.6296 14.7135 28.6621 14.6484 28.6621C14.5508 28.5319 14.4531 28.4505 14.3555 28.418C14.2578 28.3854 14.1439 28.3854 14.0137 28.418C13.916 28.4505 13.8021 28.4831 13.6719 28.5156C13.5742 28.5482 13.4603 28.5482 13.3301 28.5156C13.1022 28.3529 12.9557 28.2715 12.8906 28.2715C12.8581 28.2715 12.7116 28.2715 12.4512 28.2715C11.9629 28.0436 11.5885 27.9297 11.3281 27.9297C11.1003 27.8971 10.8887 27.8483 10.6934 27.7832C10.5632 28.0111 10.319 28.1087 9.96094 28.0762C9.60286 28.0111 9.32617 27.946 9.13086 27.8809C8.87044 28.1087 8.65885 28.2389 8.49609 28.2715C8.33333 28.2715 8.18685 28.2552 8.05664 28.2227C7.95898 28.1901 7.84505 28.1738 7.71484 28.1738C7.61719 28.1413 7.48698 28.1413 7.32422 28.1738C7.09635 28.3691 6.91732 28.4668 6.78711 28.4668C6.6569 28.4342 6.55924 28.4831 6.49414 28.6133C6.46159 28.9062 6.44531 29.1667 6.44531 29.3945C6.44531 29.5898 6.38021 29.834 6.25 30.127C6.44531 30.5501 6.52669 30.9896 6.49414 31.4453C6.49414 31.8685 6.49414 32.3079 6.49414 32.7637C6.49414 32.9264 6.55924 33.0404 6.68945 33.1055C6.81966 33.138 6.86849 33.2031 6.83594 33.3008C6.64062 33.4961 6.57552 33.7565 6.64062 34.082C6.70573 34.375 6.73828 34.6517 6.73828 34.9121C6.73828 35.0749 6.70573 35.2214 6.64062 35.3516C6.60807 35.4818 6.5918 35.6283 6.5918 35.791C6.6569 36.1816 6.68945 36.5072 6.68945 36.7676C6.68945 36.9954 6.77083 37.1908 6.93359 37.3535C6.86849 37.4837 6.83594 37.6139 6.83594 37.7441C6.83594 37.8743 6.83594 38.0046 6.83594 38.1348C7.19401 38.4928 7.55208 38.6719 7.91016 38.6719C8.26823 38.6393 8.64258 38.6882 9.0332 38.8184C9.29362 38.8184 9.4401 38.7695 9.47266 38.6719C9.53776 38.5417 9.65169 38.444 9.81445 38.3789C9.87956 38.444 9.96094 38.4766 10.0586 38.4766C10.1888 38.4766 10.3027 38.4766 10.4004 38.4766C10.5306 38.444 10.6283 38.4277 10.6934 38.4277C10.791 38.4277 10.8561 38.4766 10.8887 38.5742C11.2142 38.6068 11.3607 38.5742 11.3281 38.4766C11.3281 38.3789 11.4095 38.2975 11.5723 38.2324C11.8652 38.2324 12.1257 38.1673 12.3535 38.0371C12.5814 37.9069 12.8255 37.8418 13.0859 37.8418C13.1836 37.8418 13.265 37.8255 13.3301 37.793C13.3952 37.7279 13.4603 37.6628 13.5254 37.5977C13.6556 37.5977 13.7695 37.6302 13.8672 37.6953C13.9648 37.7279 14.0625 37.7441 14.1602 37.7441C14.4531 37.7441 14.6973 37.7116 14.8926 37.6465C15.0879 37.5814 15.3483 37.5814 15.6738 37.6465C15.7389 37.4186 15.8691 37.207 16.0645 37.0117C16.2923 37.0768 16.4551 37.0605 16.5527 36.9629C16.6829 36.8327 16.8783 36.8001 17.1387 36.8652C17.3014 36.8327 17.4154 36.7676 17.4805 36.6699C17.5456 36.5723 17.6432 36.4909 17.7734 36.4258C18.1641 36.4583 18.4245 36.3932 18.5547 36.2305C18.7174 36.0677 18.9616 35.9212 19.2871 35.791C19.3848 35.7259 19.4824 35.7096 19.5801 35.7422C19.7103 35.7422 19.8242 35.7096 19.9219 35.6445C20.1172 35.5143 20.2637 35.3353 20.3613 35.1074C20.4915 34.8796 20.638 34.668 20.8008 34.4727Z" fill="#232220"/>
<path d="M108.032 27.9268C107.999 28.2523 108.064 28.4639 108.227 28.5615C108.422 28.6266 108.52 28.7894 108.52 29.0498C108.52 29.0824 108.406 29.18 108.178 29.3428C107.95 29.5055 107.804 29.6195 107.739 29.6846C107.315 29.5869 106.941 29.6357 106.616 29.8311C106.323 30.0264 106.095 30.1729 105.932 30.2705C105.737 30.1403 105.541 30.1077 105.346 30.1729C105.151 30.238 104.955 30.2705 104.76 30.2705C104.435 30.2705 104.125 30.2217 103.832 30.124C103.572 29.9938 103.295 29.9287 103.002 29.9287C102.905 29.9287 102.807 29.945 102.709 29.9775C102.612 30.0101 102.498 30.0264 102.368 30.0264C101.879 29.766 101.489 29.6846 101.196 29.7822C100.903 29.8799 100.642 29.7985 100.414 29.5381C100.154 29.6683 99.8773 29.7497 99.5844 29.7822C99.3239 29.7822 99.0961 29.8636 98.9008 30.0264C98.6403 29.9287 98.3799 29.9124 98.1195 29.9775C97.8591 30.0101 97.5987 29.9775 97.3383 29.8799C97.1104 30.0752 97.0453 30.2217 97.1429 30.3193C97.2732 30.417 97.3383 30.5472 97.3383 30.71C97.2406 30.8076 97.1755 30.9215 97.1429 31.0518C97.1429 31.1494 97.1429 31.2633 97.1429 31.3936C97.1755 31.4912 97.1755 31.6051 97.1429 31.7354C97.1104 31.8656 97.029 31.9795 96.8988 32.0771C97.029 32.2399 97.1104 32.4189 97.1429 32.6143C97.208 32.8096 97.2569 33.0049 97.2894 33.2002C97.322 33.3955 97.3545 33.5908 97.3871 33.7861C97.4196 33.9489 97.5173 34.0954 97.6801 34.2256C97.5173 34.5511 97.4847 34.8766 97.5824 35.2021C97.7126 35.5277 97.8428 35.8369 97.973 36.1299C98.0707 36.3903 98.1032 36.6507 98.0707 36.9111C98.0707 37.139 98.1521 37.3669 98.3148 37.5947C98.1521 37.8877 98.1032 38.1318 98.1683 38.3271C98.2334 38.4899 98.3148 38.6689 98.4125 38.8643C98.5101 39.027 98.5915 39.1898 98.6566 39.3525C98.7543 39.5153 98.8357 39.613 98.9008 39.6455C98.8682 39.8408 98.8194 40.085 98.7543 40.3779C98.7217 40.6383 98.738 40.8499 98.8031 41.0127C98.7705 41.3708 98.7705 41.6475 98.8031 41.8428C98.8357 42.0055 98.8845 42.1846 98.9496 42.3799C99.0147 42.5426 99.0635 42.7217 99.0961 42.917C99.1612 43.0798 99.1449 43.3076 99.0472 43.6006C99.0798 43.7308 99.1123 43.861 99.1449 43.9912C99.1774 44.1214 99.2588 44.2191 99.389 44.2842C99.389 44.3818 99.3402 44.4632 99.2426 44.5283C99.1449 44.5609 99.0798 44.6585 99.0472 44.8213C99.21 45.2445 99.4053 45.6188 99.6332 45.9443C99.5681 46.3024 99.5681 46.5628 99.6332 46.7256C99.6983 46.8883 99.7471 47.1325 99.7797 47.458C99.682 47.6208 99.5681 47.7835 99.4379 47.9463C99.3077 48.0765 99.1774 48.223 99.0472 48.3857C99.0798 48.9391 99.0635 49.46 98.9984 49.9482C98.9659 50.404 98.6078 50.6644 97.9242 50.7295C97.6963 50.762 97.5824 50.9248 97.5824 51.2178C97.3545 51.1852 97.1755 51.2178 97.0453 51.3154C96.9151 51.4131 96.7686 51.4619 96.6058 51.4619C96.4756 51.2666 96.3617 51.1852 96.264 51.2178C96.1664 51.2503 96.0362 51.2666 95.8734 51.2666C95.7432 51.2666 95.5642 51.1364 95.3363 50.876C95.1084 50.6156 94.8643 50.4528 94.6039 50.3877C94.7015 50.1924 94.7178 50.0459 94.6527 49.9482C94.6202 49.818 94.5713 49.7041 94.5062 49.6064C94.4737 49.5088 94.4574 49.4111 94.4574 49.3135C94.4574 49.2158 94.5388 49.1019 94.7015 48.9717C94.5388 48.516 94.4899 48.0602 94.5551 47.6045C94.6527 47.1162 94.6202 46.6442 94.4574 46.1885C94.7504 45.8955 94.8643 45.5212 94.7992 45.0654C94.7341 44.6097 94.7015 44.2028 94.7015 43.8447C94.7015 43.7145 94.7178 43.6006 94.7504 43.5029C94.7829 43.3727 94.7992 43.2262 94.7992 43.0635C94.7992 42.8031 94.7341 42.5915 94.6039 42.4287C94.4737 42.2334 94.376 42.0218 94.3109 41.7939C94.376 41.1429 94.376 40.5244 94.3109 39.9385C94.2784 39.3525 94.083 38.7829 93.725 38.2295C93.6924 38.0667 93.6924 37.9528 93.725 37.8877C93.7901 37.79 93.8226 37.6598 93.8226 37.4971C93.7575 37.3669 93.7087 37.2367 93.6761 37.1064C93.6436 36.9437 93.5459 36.8298 93.3832 36.7646C93.5134 36.374 93.5622 36.0485 93.5297 35.7881C93.5297 35.5277 93.4808 35.2998 93.3832 35.1045C93.3181 34.8766 93.2367 34.6813 93.139 34.5186C93.0414 34.3232 92.9926 34.1279 92.9926 33.9326C92.9926 33.835 93.0088 33.7373 93.0414 33.6396C93.1065 33.542 93.139 33.4443 93.139 33.3467C93.139 33.2165 93.0902 33.1025 92.9926 33.0049C92.8949 32.8747 92.8461 32.7607 92.8461 32.6631C92.9437 32.2074 92.9437 31.8981 92.8461 31.7354C92.781 31.5726 92.7484 31.4098 92.7484 31.2471C92.7484 31.1169 92.7484 31.0029 92.7484 30.9053C92.781 30.8076 92.7972 30.71 92.7972 30.6123C92.7972 30.3519 92.6833 30.124 92.4554 29.9287C92.2601 29.7334 92.0323 29.6357 91.7719 29.6357C91.4789 29.6357 91.1859 29.6846 90.8929 29.7822C90.6325 29.8799 90.3558 29.9287 90.0629 29.9287C89.6071 29.9287 89.1514 29.9124 88.6957 29.8799C88.2725 29.8473 87.833 29.8636 87.3773 29.9287C87.182 29.9613 86.9867 30.0264 86.7914 30.124C86.5961 30.2217 86.4008 30.2705 86.2054 30.2705C86.0101 30.2705 85.8148 30.2217 85.6195 30.124C85.4567 29.9938 85.2777 29.9287 85.0824 29.9287C84.9196 29.5381 84.6755 29.2288 84.35 29.001C84.0245 28.7731 83.7152 28.529 83.4222 28.2686C83.292 27.8454 83.3083 27.5361 83.4711 27.3408C83.6338 27.1455 83.7803 26.8688 83.9105 26.5107C84.1058 26.3805 84.3011 26.2503 84.4965 26.1201C84.7243 25.9899 84.9034 25.8271 85.0336 25.6318C85.2289 25.7295 85.4405 25.7946 85.6683 25.8271C85.8962 25.8597 86.1078 25.9411 86.3031 26.0713C86.4659 26.0387 86.6123 25.9899 86.7426 25.9248C86.9053 25.8597 87.0681 25.8271 87.2308 25.8271C87.3936 25.8271 87.5401 25.876 87.6703 25.9736C87.8005 26.0387 87.947 26.0713 88.1097 26.0713C88.2725 26.0713 88.4353 26.0225 88.598 25.9248C88.7608 25.8271 88.9235 25.7458 89.0863 25.6807C89.2491 25.8434 89.4281 25.9248 89.6234 25.9248C89.8513 25.8923 90.0629 25.8597 90.2582 25.8271C90.486 25.7946 90.6976 25.7783 90.8929 25.7783C91.0883 25.7458 91.251 25.8109 91.3812 25.9736C91.544 25.9085 91.6742 25.8271 91.7719 25.7295C91.9021 25.6318 92.0323 25.5342 92.1625 25.4365C92.5205 25.5016 92.8623 25.6318 93.1879 25.8271C93.5459 25.9899 93.9203 26.0713 94.3109 26.0713C94.4411 26.0713 94.5551 26.055 94.6527 26.0225C94.7504 25.9574 94.8643 25.9248 94.9945 25.9248C95.1898 25.9248 95.3851 25.9574 95.5804 26.0225C95.7758 26.055 95.9548 26.0876 96.1176 26.1201C96.3129 26.1527 96.4919 26.1527 96.6547 26.1201C96.85 26.0876 97.0453 25.9899 97.2406 25.8271C97.4034 25.9248 97.5498 26.0225 97.6801 26.1201C97.8428 26.2178 98.0056 26.3154 98.1683 26.4131C98.7217 26.3154 99.2914 26.2992 99.8773 26.3643C100.463 26.4294 101.033 26.3317 101.586 26.0713C101.749 26.1038 101.896 26.1364 102.026 26.1689C102.156 26.1689 102.286 26.2178 102.416 26.3154C102.709 26.1201 103.019 26.0387 103.344 26.0713C103.67 26.1038 103.946 26.0225 104.174 25.8271C104.435 25.6969 104.614 25.6481 104.711 25.6807C104.809 25.6807 104.907 25.6807 105.004 25.6807C105.493 25.4528 105.834 25.3714 106.03 25.4365C106.258 25.4691 106.453 25.404 106.616 25.2412C106.909 25.3714 107.136 25.5016 107.299 25.6318C107.495 25.762 107.771 25.8271 108.129 25.8271C108.194 25.9899 108.308 26.2015 108.471 26.4619C108.634 26.6898 108.715 26.8851 108.715 27.0479C108.715 27.3083 108.634 27.4873 108.471 27.585C108.308 27.6501 108.162 27.764 108.032 27.9268ZM134.448 46.2373C134.578 46.9535 134.496 47.5394 134.203 47.9951C133.911 48.4183 133.65 48.9229 133.422 49.5088C133.227 49.4437 133.08 49.4925 132.983 49.6553C132.918 49.7855 132.853 49.9157 132.787 50.0459C132.657 50.1436 132.511 50.1924 132.348 50.1924C132.218 50.1598 132.088 50.2249 131.957 50.3877C131.892 50.2575 131.843 50.1436 131.811 50.0459C131.778 49.9482 131.681 49.8994 131.518 49.8994C130.965 49.8994 130.297 49.9645 129.516 50.0947C128.735 50.1924 128.133 50.4528 127.709 50.876C127.351 50.8434 127.042 50.876 126.782 50.9736C126.521 51.1038 126.228 51.2666 125.903 51.4619C125.805 51.4945 125.74 51.4456 125.707 51.3154C125.675 51.2178 125.545 51.2015 125.317 51.2666C125.089 51.4294 124.812 51.4782 124.487 51.4131C124.194 51.3805 123.917 51.3643 123.657 51.3643C123.299 51.3643 122.94 51.4294 122.582 51.5596C122.224 51.6898 121.866 51.7549 121.508 51.7549C121.248 51.7549 121.004 51.7061 120.776 51.6084C120.58 51.5107 120.369 51.3805 120.141 51.2178C119.881 51.3805 119.669 51.3968 119.506 51.2666C119.343 51.1689 119.148 51.1201 118.92 51.1201C118.497 51.2178 118.204 51.1689 118.041 50.9736C117.911 50.8109 117.7 50.762 117.407 50.8271C117.309 50.6644 117.179 50.5342 117.016 50.4365C116.886 50.3063 116.739 50.1761 116.577 50.0459H115.844C115.453 49.7529 115.03 49.5088 114.575 49.3135C114.151 49.1182 113.81 48.7926 113.549 48.3369C113.452 48.2718 113.338 48.223 113.207 48.1904C113.11 48.1253 113.012 48.0602 112.914 47.9951C112.882 47.8975 112.833 47.8324 112.768 47.7998C112.735 47.7347 112.735 47.637 112.768 47.5068C112.735 47.3441 112.589 47.1976 112.328 47.0674C112.198 47.0023 112.101 46.9209 112.036 46.8232C112.003 46.693 111.905 46.6279 111.743 46.6279C111.677 46.3024 111.612 45.9281 111.547 45.5049C111.482 45.0817 111.287 44.7887 110.961 44.626C110.961 44.4632 110.945 44.3005 110.912 44.1377C110.912 43.9749 110.815 43.8773 110.62 43.8447C110.717 43.4215 110.636 43.0146 110.375 42.624C110.44 42.4613 110.489 42.2822 110.522 42.0869C110.554 41.859 110.489 41.6637 110.327 41.501C110.294 41.3708 110.31 41.2731 110.375 41.208C110.473 41.1429 110.538 41.0615 110.571 40.9639C110.506 40.7035 110.424 40.443 110.327 40.1826C110.229 39.8896 110.18 39.5967 110.18 39.3037C110.18 39.2061 110.18 39.1247 110.18 39.0596C110.213 38.9619 110.229 38.8805 110.229 38.8154C110.066 38.3923 110.034 38.1156 110.131 37.9854C110.261 37.8226 110.327 37.6924 110.327 37.5947C110.327 37.3994 110.31 37.2204 110.278 37.0576C110.245 36.8623 110.229 36.6833 110.229 36.5205C110.229 36.2601 110.31 35.9997 110.473 35.7393C110.636 35.4788 110.636 35.2347 110.473 35.0068C110.636 34.6162 110.701 34.3395 110.668 34.1768C110.668 34.014 110.636 33.8838 110.571 33.7861C110.636 33.6234 110.717 33.5094 110.815 33.4443C110.945 33.3467 111.059 33.249 111.157 33.1514C111.287 32.7933 111.433 32.4352 111.596 32.0771C111.759 31.6865 111.987 31.361 112.28 31.1006V30.3193C112.475 30.2542 112.605 30.1403 112.67 29.9775C112.735 29.7822 112.768 29.6032 112.768 29.4404C113.093 29.2126 113.338 28.9684 113.5 28.708C113.663 28.415 113.858 28.1221 114.086 27.8291C114.314 27.5361 114.526 27.2757 114.721 27.0479C114.949 26.7874 115.128 26.6084 115.258 26.5107C115.323 26.348 115.388 26.2015 115.453 26.0713C115.551 25.9411 115.649 25.8109 115.746 25.6807C115.877 25.5505 116.039 25.4854 116.235 25.4854C116.463 25.4854 116.593 25.3551 116.625 25.0947C117.049 25.0296 117.325 24.9157 117.455 24.7529C117.618 24.5902 117.781 24.5088 117.944 24.5088C118.106 24.5088 118.253 24.5576 118.383 24.6553C118.513 24.7204 118.66 24.639 118.823 24.4111C119.018 24.5413 119.197 24.5576 119.36 24.46C119.555 24.3623 119.734 24.2646 119.897 24.167C120.092 24.3298 120.353 24.346 120.678 24.2158C121.036 24.0856 121.345 24.0205 121.606 24.0205C121.703 24.0205 121.834 23.988 121.996 23.9229C122.159 23.8252 122.289 23.7438 122.387 23.6787C122.517 23.8415 122.664 23.8415 122.827 23.6787C122.989 23.516 123.12 23.402 123.217 23.3369C123.51 23.4671 123.771 23.4997 123.998 23.4346C124.226 23.3695 124.487 23.3695 124.78 23.4346C125.04 23.4997 125.187 23.516 125.219 23.4834C125.252 23.4508 125.284 23.4346 125.317 23.4346C125.545 23.4671 125.74 23.5485 125.903 23.6787C126.098 23.7764 126.31 23.8415 126.537 23.874C126.863 23.9391 127.172 23.9717 127.465 23.9717C127.791 23.9717 128.116 23.988 128.442 24.0205C128.507 24.1182 128.556 24.2321 128.588 24.3623C128.621 24.46 128.702 24.5413 128.832 24.6064C128.963 24.6715 129.044 24.7204 129.077 24.7529C129.109 24.7855 129.174 24.8506 129.272 24.9482C129.435 25.1436 129.549 25.2412 129.614 25.2412C129.711 25.2412 129.744 25.404 129.711 25.7295C129.972 25.6644 130.118 25.6807 130.151 25.7783C130.183 25.8434 130.281 25.876 130.444 25.876C130.476 26.0062 130.525 26.1201 130.59 26.2178C130.655 26.3154 130.72 26.4294 130.786 26.5596C130.655 26.8525 130.574 27.1618 130.541 27.4873C130.541 27.8128 130.476 28.1221 130.346 28.415C130.183 28.5127 130.053 28.5615 129.955 28.5615C129.89 28.5615 129.744 28.6592 129.516 28.8545C129.288 28.9521 129.142 28.9847 129.077 28.9521C129.011 28.9196 128.946 28.887 128.881 28.8545C128.556 28.9521 128.377 28.9847 128.344 28.9521C128.344 28.887 128.312 28.8219 128.246 28.7568C128.149 28.6266 128.035 28.5615 127.905 28.5615C127.774 28.5615 127.644 28.5452 127.514 28.5127C127.384 28.5127 127.27 28.4801 127.172 28.415C127.075 28.3499 126.961 28.3011 126.83 28.2686C126.537 28.0081 126.277 27.8291 126.049 27.7314C125.854 27.6012 125.626 27.5361 125.366 27.5361C125.3 27.5361 125.219 27.5524 125.121 27.585C125.024 27.585 124.926 27.585 124.828 27.585C124.243 27.5524 123.738 27.5687 123.315 27.6338C122.924 27.6663 122.517 27.6338 122.094 27.5361C121.671 27.6338 121.394 27.8779 121.264 28.2686C121.036 28.3337 120.776 28.3662 120.483 28.3662C120.222 28.3662 119.962 28.3988 119.702 28.4639C119.474 28.4964 119.262 28.5778 119.067 28.708C118.871 28.8382 118.725 29.0335 118.627 29.2939C118.465 29.2614 118.351 29.2777 118.286 29.3428C118.253 29.4079 118.188 29.473 118.09 29.5381C117.895 29.5706 117.765 29.6357 117.7 29.7334C117.634 29.8311 117.586 29.9287 117.553 30.0264C117.553 30.0915 117.521 30.1566 117.455 30.2217C117.423 30.2868 117.309 30.3031 117.114 30.2705C117.114 30.4658 117.049 30.7262 116.918 31.0518C116.788 31.3773 116.837 31.5726 117.065 31.6377C116.902 31.6702 116.821 31.7354 116.821 31.833C116.821 31.8981 116.723 31.8981 116.528 31.833C116.495 32.1585 116.381 32.3538 116.186 32.4189C115.991 32.484 115.877 32.6468 115.844 32.9072C115.681 33.3955 115.567 33.7048 115.502 33.835C115.47 33.9326 115.405 34.1117 115.307 34.3721C115.242 34.5348 115.209 34.6813 115.209 34.8115C115.242 34.9417 115.226 35.0719 115.161 35.2021C114.998 35.2673 114.916 35.3324 114.916 35.3975C114.949 35.4626 114.965 35.5602 114.965 35.6904C114.672 36.0485 114.575 36.3415 114.672 36.5693C114.77 36.7972 114.672 37.0576 114.379 37.3506C114.575 37.4808 114.672 37.6273 114.672 37.79C114.672 37.9528 114.656 38.1156 114.623 38.2783C114.591 38.4085 114.575 38.555 114.575 38.7178C114.575 38.8805 114.591 39.027 114.623 39.1572C114.656 39.2549 114.672 39.3688 114.672 39.499C114.672 39.5967 114.656 39.6943 114.623 39.792C114.591 39.8896 114.575 39.9873 114.575 40.085C114.575 40.2477 114.607 40.3942 114.672 40.5244C114.77 40.6546 114.819 40.8011 114.819 40.9639C114.721 41.387 114.721 41.6475 114.819 41.7451C114.916 41.8102 114.965 41.8916 114.965 41.9893C115.161 42.3799 115.323 42.6891 115.453 42.917C115.616 43.1449 115.73 43.4378 115.795 43.7959C116.056 44.0238 116.251 44.2842 116.381 44.5771C116.511 44.8701 116.756 45.0654 117.114 45.1631C117.114 45.2607 117.13 45.3584 117.162 45.4561C117.195 45.5212 117.228 45.5863 117.26 45.6514C117.488 45.7165 117.667 45.8141 117.797 45.9443C117.96 46.042 118.123 46.1559 118.286 46.2861C118.578 46.5465 118.855 46.6605 119.116 46.6279C119.376 46.5954 119.669 46.6442 119.995 46.7744C120.06 46.8721 120.206 46.9535 120.434 47.0186C120.662 47.0837 120.906 47.1325 121.166 47.165C121.427 47.1976 121.687 47.2301 121.948 47.2627C122.208 47.2627 122.403 47.2627 122.534 47.2627C122.794 47.2627 123.006 47.1488 123.168 46.9209C123.364 47.0511 123.575 47.0837 123.803 47.0186C123.966 47.0186 124.064 46.986 124.096 46.9209C124.129 46.8232 124.194 46.7419 124.291 46.6768C124.552 46.807 124.78 46.7907 124.975 46.6279C125.17 46.4652 125.317 46.3838 125.414 46.3838C125.512 46.3838 125.561 46.4326 125.561 46.5303C125.593 46.5954 125.724 46.6279 125.952 46.6279C126.114 46.6279 126.212 46.5791 126.245 46.4814C126.31 46.3512 126.391 46.2536 126.489 46.1885C126.586 46.1885 126.717 46.2048 126.879 46.2373C127.075 46.2699 127.27 46.3024 127.465 46.335C127.661 46.335 127.84 46.3187 128.002 46.2861C128.165 46.2536 128.295 46.1885 128.393 46.0908C128.491 46.1559 128.605 46.1885 128.735 46.1885C128.865 46.1559 128.995 46.1071 129.125 46.042C129.256 45.9443 129.386 45.863 129.516 45.7979C129.646 45.7327 129.76 45.6839 129.858 45.6514C129.858 45.4561 129.809 45.3096 129.711 45.2119C129.646 45.1143 129.614 45.0166 129.614 44.9189C129.614 44.7562 129.679 44.5934 129.809 44.4307C129.939 44.2679 130.004 44.0726 130.004 43.8447C130.004 43.682 129.955 43.5355 129.858 43.4053C129.76 43.2751 129.711 43.1449 129.711 43.0146C129.711 42.8844 129.728 42.7542 129.76 42.624C129.793 42.4938 129.809 42.3636 129.809 42.2334C129.809 41.9079 129.744 41.5986 129.614 41.3057C129.516 41.0127 129.467 40.7197 129.467 40.4268C129.467 40.3617 129.5 40.2965 129.565 40.2314C129.662 40.1338 129.711 40.0524 129.711 39.9873C129.614 39.792 129.516 39.6455 129.418 39.5479C129.321 39.4176 129.142 39.3851 128.881 39.4502C128.849 39.32 128.8 39.2549 128.735 39.2549C128.702 39.2223 128.718 39.1247 128.784 38.9619C128.491 38.7666 128.214 38.6689 127.953 38.6689C127.693 38.6689 127.4 38.6689 127.075 38.6689C126.912 38.6689 126.733 38.6527 126.537 38.6201C126.375 38.555 126.212 38.5225 126.049 38.5225C125.886 38.5225 125.74 38.5713 125.61 38.6689C125.512 38.734 125.414 38.7666 125.317 38.7666C124.763 38.7015 124.308 38.7503 123.95 38.9131C123.624 39.0758 123.331 39.1898 123.071 39.2549C122.81 39.0921 122.55 39.0433 122.289 39.1084C122.029 39.141 121.752 39.1572 121.459 39.1572C121.297 39.1572 121.166 39.1247 121.069 39.0596C120.971 38.9619 120.841 38.9131 120.678 38.9131C120.287 38.8805 120.011 38.9456 119.848 39.1084C119.588 39.0107 119.327 38.8805 119.067 38.7178C118.839 38.555 118.595 38.4248 118.334 38.3271C118.334 38.1318 118.286 37.9528 118.188 37.79C118.123 37.5947 118.058 37.4157 117.993 37.2529C117.927 37.0902 117.879 36.9111 117.846 36.7158C117.846 36.5205 117.879 36.3089 117.944 36.0811C118.106 36.016 118.334 35.902 118.627 35.7393C118.92 35.5765 119.067 35.4137 119.067 35.251C119.392 34.9906 119.75 34.8929 120.141 34.958C120.564 35.0231 120.971 35.0557 121.362 35.0557C121.524 35.0557 121.687 35.0394 121.85 35.0068C122.045 34.9417 122.224 34.9092 122.387 34.9092C122.843 34.9092 123.364 34.958 123.95 35.0557C124.536 35.1208 125.056 35.0719 125.512 34.9092C125.903 34.6813 126.179 34.5999 126.342 34.665C126.505 34.6976 126.668 34.6325 126.83 34.4697C127.189 34.6325 127.514 34.6325 127.807 34.4697C128.133 34.307 128.425 34.0954 128.686 33.835C128.751 33.835 128.816 33.9163 128.881 34.0791C128.946 34.2419 129.011 34.3558 129.077 34.4209C129.272 34.3558 129.467 34.3721 129.662 34.4697C129.89 34.5674 130.086 34.5511 130.248 34.4209C130.346 34.4209 130.444 34.486 130.541 34.6162C130.639 34.7464 130.753 34.8441 130.883 34.9092C131.176 35.0394 131.485 35.0882 131.811 35.0557C132.136 34.9906 132.429 35.0231 132.69 35.1533C132.853 35.2184 132.95 35.3324 132.983 35.4951C133.048 35.6253 133.178 35.6742 133.373 35.6416L133.52 36.8135C133.585 37.0088 133.65 37.2204 133.715 37.4482C133.78 37.6436 133.829 37.8389 133.862 38.0342C133.862 38.1644 133.829 38.2783 133.764 38.376C133.699 38.4411 133.634 38.5387 133.569 38.6689C133.634 38.9294 133.731 39.1084 133.862 39.2061C134.024 39.2712 134.187 39.3851 134.35 39.5479C134.35 39.7106 134.285 39.8408 134.155 39.9385C134.057 40.0036 133.992 40.1175 133.959 40.2803C134.09 40.4105 134.155 40.5895 134.155 40.8174C134.187 41.0452 134.203 41.3057 134.203 41.5986C134.236 41.859 134.269 42.1195 134.301 42.3799C134.334 42.6077 134.415 42.8193 134.545 43.0146C134.448 43.3076 134.415 43.6006 134.448 43.8936C134.513 44.154 134.562 44.4307 134.594 44.7236C134.659 44.984 134.692 45.2445 134.692 45.5049C134.692 45.7653 134.61 46.0094 134.448 46.2373ZM166.381 48.4346C166.251 48.8903 166.235 49.3786 166.332 49.8994C166.17 50.1598 165.942 50.3877 165.649 50.583C165.388 50.7783 165.128 50.9574 164.868 51.1201C164.542 51.0876 164.217 51.0225 163.891 50.9248C163.598 50.7946 163.289 50.6969 162.963 50.6318C162.866 50.404 162.719 50.2249 162.524 50.0947C162.361 49.9645 162.231 49.8018 162.133 49.6064C162.036 49.4437 161.97 49.2158 161.938 48.9229C161.938 48.6299 161.922 48.3369 161.889 48.0439C161.856 47.751 161.791 47.4906 161.694 47.2627C161.629 47.0348 161.498 46.8883 161.303 46.8232C161.336 46.4977 161.173 46.1071 160.815 45.6514C160.457 45.1956 160.196 44.805 160.034 44.4795C159.773 44.3167 159.545 44.1214 159.35 43.8936C159.155 43.6331 158.976 43.3727 158.813 43.1123C158.487 43.1774 158.276 43.1286 158.178 42.9658C158.113 42.8031 157.967 42.7542 157.739 42.8193C157.739 42.7217 157.706 42.6403 157.641 42.5752C157.608 42.4775 157.576 42.3962 157.543 42.3311C157.25 42.0706 156.941 41.8428 156.616 41.6475C156.323 41.4521 156.046 41.2243 155.786 40.9639C155.623 40.9639 155.46 40.9964 155.297 41.0615C155.167 41.0941 155.053 41.0127 154.955 40.8174C154.793 40.8174 154.646 40.8662 154.516 40.9639C154.418 41.029 154.321 41.0615 154.223 41.0615C154.125 41.0615 154.028 41.0452 153.93 41.0127C153.865 40.9801 153.784 40.9639 153.686 40.9639C153.328 40.9639 152.953 40.9801 152.563 41.0127C152.205 41.0127 151.847 41.0778 151.489 41.208C151.424 41.1429 151.342 41.0615 151.245 40.9639C151.147 40.8662 151.065 40.8174 151 40.8174C150.935 40.8174 150.724 40.915 150.366 41.1104C150.04 41.2731 149.747 41.3708 149.487 41.4033C149.031 41.4684 148.494 41.5173 147.875 41.5498C147.257 41.5824 146.785 41.8102 146.459 42.2334C146.297 42.1683 146.118 42.152 145.922 42.1846C145.727 42.1846 145.613 42.2985 145.58 42.5264C145.385 42.4938 145.239 42.4613 145.141 42.4287C145.076 42.3636 144.946 42.3636 144.75 42.4287C144.588 42.7542 144.588 43.0472 144.75 43.3076C144.913 43.568 145.027 43.8447 145.092 44.1377C145.125 44.3981 145.141 44.7887 145.141 45.3096C145.141 45.8304 145.271 46.1722 145.532 46.335C145.434 46.5628 145.369 46.7907 145.336 47.0186C145.304 47.2464 145.287 47.4906 145.287 47.751C145.287 47.8486 145.304 47.9463 145.336 48.0439C145.401 48.109 145.434 48.2067 145.434 48.3369C145.434 48.4997 145.385 48.6462 145.287 48.7764C145.222 48.874 145.206 49.0042 145.239 49.167C145.011 49.2321 144.881 49.3786 144.848 49.6064C144.815 49.8018 144.799 49.9808 144.799 50.1436C144.539 50.1436 144.311 50.1924 144.116 50.29C143.953 50.3551 143.774 50.4365 143.578 50.5342C143.416 50.6318 143.237 50.6969 143.041 50.7295C142.846 50.762 142.618 50.7295 142.358 50.6318C142.065 50.2087 141.674 49.818 141.186 49.46C141.218 49.3298 141.202 49.1995 141.137 49.0693C141.105 48.9066 141.007 48.8252 140.844 48.8252C140.877 48.4671 140.844 48.2067 140.746 48.0439C140.649 47.8812 140.519 47.6533 140.356 47.3604C140.356 47.165 140.405 46.986 140.502 46.8232C140.6 46.6279 140.681 46.4489 140.746 46.2861C140.681 45.9606 140.633 45.6188 140.6 45.2607C140.567 44.9027 140.453 44.5934 140.258 44.333C140.258 44.2028 140.274 44.1051 140.307 44.04C140.34 43.9424 140.356 43.8447 140.356 43.7471C140.356 43.5192 140.307 43.2751 140.209 43.0146C140.112 42.7542 140.03 42.4938 139.965 42.2334C139.9 41.973 139.851 41.7288 139.819 41.501C139.819 41.2731 139.9 41.0941 140.063 40.9639C139.802 40.7035 139.656 40.4756 139.623 40.2803C139.623 40.0524 139.591 39.7757 139.526 39.4502C139.461 39.2874 139.396 39.1572 139.33 39.0596C139.265 38.9294 139.2 38.7829 139.135 38.6201C139.07 38.2946 139.054 37.9691 139.086 37.6436C139.151 37.2855 139.103 36.9437 138.94 36.6182C138.907 36.5531 138.875 36.488 138.842 36.4229C138.81 36.3252 138.793 36.2275 138.793 36.1299C138.793 35.9671 138.81 35.8206 138.842 35.6904C138.875 35.5602 138.891 35.4137 138.891 35.251C138.891 34.5674 138.875 33.8838 138.842 33.2002C138.81 32.5166 138.793 31.833 138.793 31.1494C138.793 31.0192 138.793 30.9053 138.793 30.8076C138.826 30.71 138.842 30.6123 138.842 30.5146C138.842 30.3519 138.793 30.1891 138.696 30.0264C138.826 29.6683 138.826 29.3265 138.696 29.001C138.565 28.6429 138.403 28.3011 138.207 27.9756C138.273 27.8128 138.289 27.6338 138.256 27.4385C138.256 27.2432 138.256 27.0641 138.256 26.9014C138.256 26.5433 138.338 26.3154 138.5 26.2178C138.696 26.1201 138.793 25.9411 138.793 25.6807C139.184 25.6481 139.493 25.404 139.721 24.9482C139.949 24.9482 140.128 24.8994 140.258 24.8018C140.421 24.6715 140.6 24.5739 140.795 24.5088C140.991 24.7041 141.235 24.8018 141.528 24.8018C141.756 24.8018 141.967 24.7692 142.162 24.7041C142.358 24.6064 142.569 24.5413 142.797 24.5088C143.09 24.4437 143.383 24.4274 143.676 24.46C143.969 24.4925 144.278 24.5088 144.604 24.5088C144.767 24.5088 144.913 24.4925 145.043 24.46C145.206 24.3949 145.369 24.3623 145.532 24.3623C145.629 24.3623 145.727 24.3949 145.825 24.46C145.922 24.4925 146.036 24.5088 146.166 24.5088C146.622 24.5088 147.062 24.4437 147.485 24.3135C147.94 24.1833 148.38 24.2484 148.803 24.5088C149.064 24.4437 149.259 24.3949 149.389 24.3623C149.552 24.2972 149.763 24.346 150.024 24.5088C150.187 24.4437 150.333 24.4111 150.463 24.4111C150.593 24.3786 150.74 24.3298 150.903 24.2646C151.131 24.2646 151.342 24.3135 151.537 24.4111C151.733 24.4762 151.944 24.5088 152.172 24.5088C152.335 24.5088 152.481 24.4925 152.612 24.46C152.742 24.3949 152.888 24.3623 153.051 24.3623C153.409 24.3623 153.735 24.4274 154.028 24.5576C154.353 24.6878 154.711 24.7041 155.102 24.6064C155.362 24.8018 155.672 25.0296 156.03 25.29C156.42 25.5179 156.778 25.4691 157.104 25.1436C157.202 25.2087 157.283 25.2738 157.348 25.3389C157.446 25.404 157.511 25.5179 157.543 25.6807C157.771 25.7458 157.918 25.7458 157.983 25.6807C158.08 25.6156 158.211 25.583 158.373 25.583C158.536 25.7458 158.65 25.8271 158.715 25.8271C158.78 25.8271 158.927 25.8271 159.155 25.8271C159.448 25.9899 159.627 26.0713 159.692 26.0713C159.789 26.234 159.903 26.3317 160.034 26.3643C160.196 26.3968 160.294 26.4945 160.327 26.6572C160.88 26.7223 161.303 26.8851 161.596 27.1455C161.922 27.4059 162.182 27.7803 162.377 28.2686C162.442 28.4313 162.638 28.5127 162.963 28.5127C162.931 29.0335 163.012 29.3916 163.207 29.5869C163.435 29.7497 163.761 29.9287 164.184 30.124C164.151 30.3844 164.119 30.6449 164.086 30.9053C164.086 31.1331 164.086 31.3773 164.086 31.6377C164.151 32.1585 164.086 32.5329 163.891 32.7607C163.696 32.9561 163.631 33.249 163.696 33.6396C163.598 33.6722 163.435 33.6885 163.207 33.6885C163.207 33.9163 163.256 34.0954 163.354 34.2256C162.833 34.4209 162.426 34.7464 162.133 35.2021C161.84 35.6579 161.482 36.016 161.059 36.2764V36.7646C160.994 36.8298 160.912 36.8623 160.815 36.8623C160.717 36.8298 160.636 36.8135 160.571 36.8135C160.571 37.0088 160.522 37.1878 160.424 37.3506C160.327 37.5133 160.278 37.6761 160.278 37.8389C160.05 37.9691 159.822 38.0505 159.594 38.083C159.627 38.2783 159.692 38.4899 159.789 38.7178C159.92 38.9131 160.099 39.0433 160.327 39.1084C160.392 39.1735 160.44 39.2549 160.473 39.3525C160.506 39.4502 160.554 39.5316 160.62 39.5967C160.685 39.6618 160.75 39.7106 160.815 39.7432C160.912 39.7432 160.994 39.7757 161.059 39.8408C161.222 39.971 161.336 40.1175 161.401 40.2803C161.498 40.443 161.629 40.5732 161.791 40.6709C162.084 40.8988 162.394 41.0941 162.719 41.2568C163.045 41.387 163.338 41.6312 163.598 41.9893C163.728 42.3799 163.891 42.6891 164.086 42.917C164.282 43.1123 164.493 43.3402 164.721 43.6006C164.949 43.8285 165.177 44.0563 165.405 44.2842C165.633 44.4795 165.795 44.6097 165.893 44.6748C165.893 44.8701 165.877 45.0003 165.844 45.0654C165.844 45.098 165.942 45.1794 166.137 45.3096C166.17 45.5049 166.17 45.7653 166.137 46.0908C166.137 46.3838 166.121 46.693 166.088 47.0186C166.088 47.3441 166.105 47.637 166.137 47.8975C166.17 48.1579 166.251 48.3369 166.381 48.4346ZM158.813 30.5146C158.65 30.5146 158.471 30.4984 158.276 30.4658C158.113 30.4007 157.934 30.3844 157.739 30.417C157.739 30.3844 157.674 30.3193 157.543 30.2217C157.413 30.124 157.267 30.0264 157.104 29.9287C156.941 29.7985 156.778 29.6846 156.616 29.5869C156.485 29.4893 156.404 29.4404 156.371 29.4404C156.241 29.4079 156.111 29.4079 155.981 29.4404C155.851 29.4404 155.72 29.4404 155.59 29.4404C155.297 29.4404 155.053 29.359 154.858 29.1963C154.662 29.0335 154.435 28.9196 154.174 28.8545C154.109 28.8219 154.028 28.8219 153.93 28.8545C153.832 28.8545 153.751 28.8545 153.686 28.8545C153.556 28.8545 153.442 28.8219 153.344 28.7568C153.246 28.6592 153.133 28.6104 153.002 28.6104C152.872 28.6104 152.758 28.6266 152.661 28.6592C152.563 28.6917 152.449 28.708 152.319 28.708C152.156 28.708 151.977 28.6592 151.782 28.5615C151.619 28.4639 151.44 28.4639 151.245 28.5615C150.984 28.3011 150.659 28.1872 150.268 28.2197C149.91 28.2197 149.552 28.1872 149.194 28.1221C149.031 28.0895 148.852 28.0407 148.657 27.9756C148.461 27.9105 148.282 27.8779 148.12 27.8779C147.989 27.8779 147.875 27.9268 147.778 28.0244C147.68 28.0895 147.582 28.1221 147.485 28.1221C147.387 28.1221 147.289 28.1058 147.192 28.0732C147.094 28.0081 146.996 27.9756 146.899 27.9756C146.443 27.9756 146.02 28.0732 145.629 28.2686C145.271 28.4313 144.832 28.415 144.311 28.2197C143.92 28.5778 143.448 28.9196 142.895 29.2451C142.927 30.124 142.927 31.0029 142.895 31.8818C142.862 32.012 142.83 32.1423 142.797 32.2725C142.765 32.4027 142.748 32.5329 142.748 32.6631C142.748 32.7607 142.797 32.8584 142.895 32.9561C142.993 33.0212 143.074 33.0863 143.139 33.1514C142.976 33.3141 142.879 33.4769 142.846 33.6396C142.846 33.8024 142.862 33.9814 142.895 34.1768C142.927 34.3395 142.976 34.5023 143.041 34.665C143.106 34.8278 143.139 34.9906 143.139 35.1533C143.041 35.251 142.976 35.4463 142.944 35.7393C142.944 36.0322 142.976 36.3577 143.041 36.7158C143.106 37.0413 143.188 37.3669 143.286 37.6924C143.416 37.9854 143.562 38.1969 143.725 38.3271C144.083 38.0993 144.425 38.0179 144.75 38.083C145.108 38.1481 145.467 38.0993 145.825 37.9365C145.955 37.8714 146.069 37.8226 146.166 37.79C146.297 37.7249 146.427 37.6924 146.557 37.6924C146.752 37.6924 146.931 37.7249 147.094 37.79C147.289 37.8226 147.485 37.8389 147.68 37.8389C147.94 37.8389 148.201 37.8389 148.461 37.8389C148.722 37.8063 148.982 37.79 149.243 37.79C149.601 37.5296 149.975 37.3994 150.366 37.3994C150.789 37.3994 151.212 37.3669 151.635 37.3018C152.026 37.2367 152.384 37.139 152.709 37.0088C153.035 36.846 153.425 36.7972 153.881 36.8623C154.174 36.5368 154.37 36.2926 154.467 36.1299C154.565 35.9671 154.695 35.8369 154.858 35.7393C155.053 35.8044 155.2 35.8206 155.297 35.7881C155.395 35.7555 155.476 35.723 155.541 35.6904C155.639 35.6253 155.753 35.5765 155.883 35.5439C156.013 35.5114 156.192 35.5114 156.42 35.5439C156.518 35.2184 156.713 35.0231 157.006 34.958C157.299 34.8604 157.511 34.6488 157.641 34.3232C157.804 34.2907 157.934 34.2744 158.032 34.2744C158.129 34.2744 158.211 34.2093 158.276 34.0791C158.439 33.5908 158.601 33.2653 158.764 33.1025C158.959 32.9398 159.106 32.7933 159.203 32.6631C159.301 32.5003 159.334 32.2887 159.301 32.0283C159.269 31.7679 159.106 31.2633 158.813 30.5146ZM200.219 47.458C200.187 47.6208 200.04 47.751 199.78 47.8486C199.519 47.9137 199.308 48.0277 199.145 48.1904C199.145 48.3857 199.096 48.5322 198.998 48.6299C198.901 48.695 198.868 48.8577 198.901 49.1182C198.738 49.1833 198.575 49.3298 198.412 49.5576C198.25 49.7855 198.087 49.8994 197.924 49.8994C197.696 49.8994 197.501 49.8506 197.338 49.7529C197.208 49.6227 196.996 49.5902 196.703 49.6553C196.443 49.167 196.085 48.8252 195.629 48.6299C195.401 48.2067 195.174 47.7998 194.946 47.4092C194.718 47.0186 194.506 46.6117 194.311 46.1885C193.823 45.7653 193.432 45.4886 193.139 45.3584C192.846 45.1956 192.569 45.1468 192.309 45.2119C192.081 45.2445 191.821 45.3584 191.528 45.5537C191.267 45.749 190.893 45.9932 190.405 46.2861C190.079 46.2861 189.623 46.2861 189.037 46.2861C188.484 46.2861 188.077 46.221 187.817 46.0908C187.719 46.0583 187.621 46.0257 187.524 45.9932C187.459 45.9281 187.377 45.8955 187.28 45.8955C187.149 45.8955 187.019 45.9281 186.889 45.9932C186.791 46.0257 186.677 46.042 186.547 46.042C186.417 46.042 186.303 46.0257 186.205 45.9932C186.108 45.9606 185.994 45.9281 185.864 45.8955C185.733 45.8955 185.62 45.9118 185.522 45.9443C185.457 45.9443 185.375 45.9281 185.278 45.8955C185.082 45.9932 184.936 46.0908 184.838 46.1885C184.773 46.2536 184.675 46.2861 184.545 46.2861C184.09 46.1234 183.601 46.0094 183.08 45.9443C182.592 45.8792 182.12 45.7165 181.664 45.4561C181.404 45.391 181.258 45.4398 181.225 45.6025C181.192 45.7327 181.095 45.7979 180.932 45.7979C180.574 45.7653 180.248 45.7816 179.955 45.8467C179.662 45.8792 179.337 45.8955 178.979 45.8955C178.816 45.8955 178.637 45.8792 178.442 45.8467C178.279 45.8141 178.116 45.7979 177.953 45.7979C177.758 45.7979 177.579 45.8467 177.416 45.9443C177.254 46.0094 177.091 46.042 176.928 46.042C176.798 46.042 176.684 46.0257 176.586 45.9932C176.489 45.9281 176.358 45.8955 176.196 45.8955C176.033 45.8955 175.886 45.9443 175.756 46.042C175.659 46.1071 175.545 46.1396 175.414 46.1396C175.252 46.1396 175.105 46.1396 174.975 46.1396C174.845 46.1071 174.715 46.0908 174.584 46.0908C174.291 46.0908 174.08 46.1559 173.95 46.2861C173.819 46.3838 173.722 46.5303 173.657 46.7256C173.624 46.8883 173.592 47.0674 173.559 47.2627C173.526 47.4255 173.429 47.5719 173.266 47.7021C173.331 48.1904 173.315 48.5811 173.217 48.874C173.12 49.167 172.924 49.5088 172.631 49.8994C172.208 49.932 171.801 49.9971 171.411 50.0947C171.02 50.1598 170.613 50.1924 170.19 50.1924C169.929 50.1924 169.75 50.111 169.653 49.9482C169.555 49.7855 169.425 49.6227 169.262 49.46C169.034 49.2646 168.855 49.0693 168.725 48.874C168.627 48.6787 168.497 48.4508 168.334 48.1904C168.367 48.0602 168.432 47.9626 168.53 47.8975C168.66 47.7998 168.774 47.7184 168.871 47.6533C168.806 47.458 168.79 47.2952 168.823 47.165C168.888 47.0348 168.969 46.9046 169.067 46.7744C169.164 46.6442 169.246 46.514 169.311 46.3838C169.409 46.221 169.457 46.0583 169.457 45.8955C169.457 45.7002 169.457 45.57 169.457 45.5049C169.49 45.4398 169.523 45.391 169.555 45.3584C169.588 45.3258 169.62 45.2933 169.653 45.2607C169.685 45.2282 169.734 45.1468 169.799 45.0166C169.864 44.8864 169.881 44.7725 169.848 44.6748C169.815 44.5446 169.832 44.4144 169.897 44.2842C170.027 43.9912 170.174 43.7308 170.336 43.5029C170.532 43.2425 170.711 42.9821 170.873 42.7217C170.939 42.5589 170.987 42.4124 171.02 42.2822C171.085 42.152 171.15 42.0218 171.215 41.8916C171.313 41.6312 171.492 41.387 171.752 41.1592V40.5244C171.85 40.3942 171.931 40.2803 171.996 40.1826C172.062 40.085 172.175 40.0036 172.338 39.9385C172.306 39.5479 172.403 39.2223 172.631 38.9619C172.859 38.6689 173.006 38.3434 173.071 37.9854C173.526 37.7249 173.901 37.3669 174.194 36.9111C174.519 36.4229 174.633 35.902 174.536 35.3486C174.796 35.251 174.991 35.0719 175.121 34.8115C175.252 34.5511 175.447 34.3721 175.707 34.2744C175.707 34.014 175.74 33.7861 175.805 33.5908C175.903 33.3955 175.952 33.1676 175.952 32.9072C176.245 32.7445 176.44 32.5329 176.537 32.2725C176.668 31.9795 176.798 31.7028 176.928 31.4424C176.961 31.3773 177.026 31.2633 177.123 31.1006C177.221 30.9053 177.319 30.71 177.416 30.5146C177.514 30.3193 177.595 30.1566 177.661 30.0264C177.758 29.8636 177.807 29.7497 177.807 29.6846C178.393 28.708 178.735 27.7965 178.832 26.9502C179.028 26.7549 179.158 26.6247 179.223 26.5596C179.321 26.4619 179.386 26.3805 179.418 26.3154C179.451 26.2178 179.467 26.1201 179.467 26.0225C179.467 25.8923 179.5 25.7132 179.565 25.4854C179.662 25.5179 179.744 25.4854 179.809 25.3877C179.907 25.2575 180.004 25.111 180.102 24.9482C180.232 24.7855 180.379 24.639 180.541 24.5088C180.737 24.346 180.981 24.2646 181.274 24.2646C181.599 24.2646 181.909 24.2972 182.202 24.3623C182.495 24.4274 182.804 24.4762 183.129 24.5088C183.292 24.7041 183.455 24.8831 183.618 25.0459C183.813 25.2087 183.992 25.404 184.155 25.6318V26.2178C184.415 26.5433 184.659 26.8851 184.887 27.2432C185.148 27.5687 185.473 27.8128 185.864 27.9756C185.831 28.3337 185.896 28.5452 186.059 28.6104C186.254 28.6429 186.466 28.7406 186.694 28.9033C186.661 29.1963 186.677 29.4242 186.743 29.5869C186.84 29.7171 186.938 29.8799 187.036 30.0752C187.166 30.238 187.28 30.4007 187.377 30.5635C187.475 30.6937 187.54 30.7913 187.573 30.8564C187.735 31.1494 187.931 31.2959 188.159 31.2959C188.126 31.4587 188.175 31.5726 188.305 31.6377C188.435 31.6702 188.468 31.8005 188.403 32.0283C188.696 32.3213 189.054 32.5492 189.477 32.7119C189.477 32.9398 189.558 33.1514 189.721 33.3467C189.884 33.5094 190.047 33.6396 190.209 33.7373C190.242 33.9001 190.307 34.014 190.405 34.0791C190.502 34.1442 190.6 34.2093 190.698 34.2744C190.86 34.3721 190.974 34.5023 191.039 34.665C191.137 34.8278 191.267 34.9417 191.43 35.0068C191.463 35.2998 191.625 35.6416 191.918 36.0322C192.211 36.3903 192.521 36.7646 192.846 37.1553C193.172 37.5133 193.465 37.8551 193.725 38.1807C193.985 38.4736 194.099 38.7015 194.067 38.8643C194.327 39.027 194.571 39.2061 194.799 39.4014C195.06 39.5641 195.353 39.7106 195.678 39.8408C195.678 40.1012 195.662 40.2965 195.629 40.4268C195.629 40.5244 195.646 40.6221 195.678 40.7197C195.711 40.7848 195.776 40.8499 195.873 40.915C195.971 40.9801 196.134 41.0941 196.362 41.2568C196.329 41.4196 196.394 41.6149 196.557 41.8428C196.622 41.973 196.671 42.1195 196.703 42.2822C196.736 42.4124 196.801 42.5589 196.899 42.7217C197.062 42.9821 197.273 43.1937 197.534 43.3564C197.827 43.4867 198.087 43.6494 198.315 43.8447C198.478 44.2028 198.608 44.5609 198.705 44.9189C198.803 45.277 198.917 45.6351 199.047 45.9932C199.275 46.221 199.519 46.3838 199.78 46.4814C199.812 46.6442 199.845 46.8232 199.877 47.0186C199.942 47.2139 200.056 47.3604 200.219 47.458ZM188.891 38.2783C188.696 38.2458 188.549 38.1807 188.452 38.083C188.354 37.9528 188.224 37.8714 188.061 37.8389C188.093 37.4157 188.012 37.1878 187.817 37.1553C187.621 37.1227 187.41 36.9925 187.182 36.7646C187.182 36.6019 187.117 36.5042 186.987 36.4717C186.856 36.4066 186.759 36.3089 186.694 36.1787C186.564 35.8206 186.482 35.6253 186.45 35.5928C186.417 35.5277 186.319 35.4463 186.157 35.3486C186.026 35.2835 185.961 35.2021 185.961 35.1045C185.961 35.0068 185.831 34.8929 185.571 34.7627C185.44 34.6976 185.31 34.6488 185.18 34.6162C185.05 34.5837 184.952 34.5023 184.887 34.3721C184.692 34.014 184.448 33.6396 184.155 33.249C183.894 32.8258 183.731 32.3864 183.666 31.9307C183.341 31.7354 183.097 31.5075 182.934 31.2471C182.804 30.9867 182.511 30.8239 182.055 30.7588C181.795 31.0843 181.616 31.4424 181.518 31.833C181.42 32.1911 181.209 32.5003 180.883 32.7607V33.3955C180.72 33.5908 180.541 33.8024 180.346 34.0303C180.183 34.2581 180.118 34.5023 180.151 34.7627C179.89 34.8278 179.76 34.958 179.76 35.1533C179.76 35.3486 179.695 35.5277 179.565 35.6904C179.5 35.7881 179.418 35.8532 179.321 35.8857C179.256 35.9183 179.223 36.016 179.223 36.1787C179.06 36.5042 178.946 36.7646 178.881 36.96C178.816 37.1553 178.735 37.3343 178.637 37.4971C178.279 37.6598 178.133 37.8063 178.198 37.9365C178.263 38.0667 178.246 38.2458 178.149 38.4736C178.019 38.7015 177.856 38.8643 177.661 38.9619C177.498 39.027 177.449 39.2386 177.514 39.5967C177.156 39.9222 176.847 40.2965 176.586 40.7197C176.358 41.1104 176.277 41.5498 176.342 42.0381C176.668 42.0055 176.993 42.0055 177.319 42.0381C177.644 42.0706 177.97 42.0869 178.295 42.0869C178.653 42.0869 178.979 42.0218 179.272 41.8916C179.597 41.7614 179.939 41.6963 180.297 41.6963C180.72 41.6963 181.144 41.8102 181.567 42.0381C181.99 42.2334 182.397 42.2334 182.787 42.0381C182.95 42.1032 183.08 42.1683 183.178 42.2334C183.276 42.2985 183.406 42.3636 183.569 42.4287C184.643 42.624 185.733 42.5426 186.84 42.1846C187.166 42.3148 187.41 42.3962 187.573 42.4287C187.67 42.3636 187.849 42.3148 188.11 42.2822C188.37 42.2497 188.631 42.2171 188.891 42.1846C189.184 42.152 189.428 42.1032 189.623 42.0381C189.851 41.973 189.949 41.8916 189.916 41.7939C190.144 41.6637 190.323 41.5986 190.453 41.5986C190.616 41.5986 190.698 41.4196 190.698 41.0615C190.698 40.8662 190.616 40.6546 190.453 40.4268C190.291 40.1989 190.095 39.971 189.868 39.7432C189.64 39.4827 189.428 39.2386 189.233 39.0107C189.037 38.7503 188.924 38.5062 188.891 38.2783ZM237.133 49.5576C237.101 49.6553 237.036 49.7367 236.938 49.8018C236.84 49.8669 236.759 49.932 236.694 49.9971C236.629 50.0622 236.58 50.1436 236.547 50.2412C236.515 50.3389 236.547 50.4528 236.645 50.583C236.58 50.7458 236.368 50.8434 236.01 50.876C235.652 50.876 235.375 50.9899 235.18 51.2178C235.05 51.2829 234.92 51.2829 234.789 51.2178C234.692 51.1852 234.578 51.2178 234.448 51.3154C234.155 51.1527 233.894 50.9574 233.666 50.7295C233.471 50.4691 233.194 50.29 232.836 50.1924C232.804 49.9645 232.706 49.7855 232.543 49.6553C232.381 49.5251 232.299 49.3623 232.299 49.167C232.332 48.7438 232.299 48.516 232.202 48.4834C232.104 48.4183 232.023 48.3044 231.957 48.1416C231.892 48.0439 231.86 47.9463 231.86 47.8486C231.86 47.7184 231.795 47.637 231.664 47.6045C231.73 47.4417 231.795 47.279 231.86 47.1162C231.957 46.9535 232.039 46.7907 232.104 46.6279C231.941 46.2699 231.73 45.9281 231.469 45.6025C231.209 45.277 231.078 44.9027 231.078 44.4795C231.078 44.3167 231.078 44.1702 231.078 44.04C231.111 43.9098 231.127 43.7633 231.127 43.6006C231.127 43.4704 231.095 43.3564 231.03 43.2588C230.997 43.1611 231.03 43.0472 231.127 42.917C231.062 42.7217 230.981 42.5426 230.883 42.3799C230.818 42.1846 230.753 41.9893 230.688 41.7939C230.786 41.7614 230.851 41.6475 230.883 41.4521C230.916 41.2243 230.916 40.9964 230.883 40.7686C230.851 40.5081 230.818 40.264 230.786 40.0361C230.753 39.7757 230.737 39.5967 230.737 39.499C230.737 39.3688 230.753 39.2386 230.786 39.1084C230.818 38.9782 230.834 38.848 230.834 38.7178C230.965 38.1644 230.965 37.6924 230.834 37.3018C230.704 36.9111 230.639 36.5693 230.639 36.2764C230.639 35.8206 230.655 35.3812 230.688 34.958C230.72 34.5348 230.59 34.0954 230.297 33.6396C229.809 33.8675 229.516 34.2093 229.418 34.665H228.881C228.784 34.7627 228.735 34.8441 228.735 34.9092C228.735 34.9417 228.751 35.0231 228.784 35.1533C228.653 35.1859 228.572 35.251 228.539 35.3486C228.507 35.4463 228.474 35.5439 228.442 35.6416C228.409 35.7393 228.328 35.8857 228.198 36.0811C228.067 36.2438 227.921 36.4229 227.758 36.6182C227.628 36.8135 227.481 37.0088 227.319 37.2041C227.189 37.3994 227.091 37.5459 227.026 37.6436C226.993 37.8389 226.944 38.0342 226.879 38.2295C226.847 38.3923 226.847 38.5713 226.879 38.7666H226.293C226.196 39.1247 226.147 39.4665 226.147 39.792C225.789 40.5081 225.528 41.0778 225.366 41.501C225.203 41.9242 224.942 42.3311 224.584 42.7217C224.649 42.917 224.649 43.0472 224.584 43.1123C224.519 43.1774 224.487 43.2913 224.487 43.4541C224.226 43.7145 224.015 43.9424 223.852 44.1377C223.689 44.333 223.575 44.6097 223.51 44.9678C223.347 45.0329 223.233 45.1305 223.168 45.2607C223.136 45.3584 223.087 45.4723 223.022 45.6025C222.989 45.7002 222.924 45.7979 222.827 45.8955C222.761 45.9932 222.631 46.0583 222.436 46.0908C222.599 46.3187 222.664 46.5303 222.631 46.7256C222.631 46.8883 222.68 47.0674 222.778 47.2627C222.778 47.3929 222.713 47.4743 222.582 47.5068C222.452 47.5068 222.355 47.6045 222.289 47.7998C222.224 47.9626 222.192 48.1253 222.192 48.2881C222.224 48.4508 222.224 48.6136 222.192 48.7764C222.127 48.9391 222.078 49.0368 222.045 49.0693C222.045 49.0693 222.029 49.0856 221.996 49.1182C221.964 49.1507 221.948 49.2158 221.948 49.3135C221.948 49.3786 221.948 49.5413 221.948 49.8018C221.687 49.8669 221.606 50.0296 221.703 50.29C221.541 50.2249 221.443 50.2575 221.411 50.3877C221.378 50.4854 221.378 50.5993 221.411 50.7295C221.248 50.6969 221.085 50.6969 220.922 50.7295C220.759 50.7295 220.629 50.8109 220.532 50.9736C220.401 50.876 220.255 50.8597 220.092 50.9248C219.962 50.9574 219.815 50.9736 219.653 50.9736C219.457 50.7783 219.262 50.6969 219.067 50.7295C218.871 50.762 218.644 50.7783 218.383 50.7783C218.22 50.4202 218.025 50.1273 217.797 49.8994C217.569 49.6715 217.423 49.3298 217.358 48.874C217.195 48.7113 217.065 48.5322 216.967 48.3369C216.902 48.1416 216.788 47.9626 216.625 47.7998C216.625 47.4417 216.56 47.0999 216.43 46.7744C216.3 46.4163 216.072 46.1396 215.746 45.9443C215.714 45.6514 215.633 45.391 215.502 45.1631C215.372 44.9027 215.226 44.6585 215.063 44.4307C215.063 44.2028 215.014 44.0075 214.916 43.8447C214.851 43.6494 214.77 43.4867 214.672 43.3564C214.575 43.1937 214.477 43.0309 214.379 42.8682C214.282 42.7054 214.217 42.5264 214.184 42.3311C214.054 42.266 213.94 42.1846 213.842 42.0869C213.777 41.9567 213.663 41.859 213.5 41.7939C213.468 41.6312 213.419 41.501 213.354 41.4033C213.321 41.2731 213.273 41.1429 213.207 41.0127C212.849 40.6872 212.573 40.3128 212.377 39.8896C212.182 39.4665 211.905 39.1084 211.547 38.8154C211.58 38.7178 211.564 38.6364 211.498 38.5713C211.466 38.5062 211.433 38.4248 211.401 38.3271C210.88 37.904 210.473 37.3994 210.18 36.8135C209.92 36.195 209.578 35.7393 209.155 35.4463C208.829 35.0557 208.585 34.7464 208.422 34.5186C208.292 34.2907 208.097 34.0954 207.836 33.9326C207.576 33.9001 207.446 33.9489 207.446 34.0791C207.446 34.2093 207.478 34.3558 207.543 34.5186C207.543 34.6162 207.527 34.7139 207.495 34.8115C207.462 34.9092 207.446 35.0068 207.446 35.1045C207.446 35.2021 207.462 35.2998 207.495 35.3975C207.527 35.4626 207.543 35.5439 207.543 35.6416C207.543 36.195 207.495 36.7484 207.397 37.3018C207.332 37.8226 207.299 38.3597 207.299 38.9131C207.299 38.9782 207.315 39.0596 207.348 39.1572C207.381 39.2549 207.397 39.3525 207.397 39.4502C207.397 39.5804 207.364 39.6943 207.299 39.792C207.267 39.8896 207.25 40.0199 207.25 40.1826C207.25 40.4756 207.267 40.7848 207.299 41.1104C207.364 41.4033 207.413 41.6963 207.446 41.9893C207.576 42.0544 207.657 42.1357 207.69 42.2334C207.755 42.3311 207.82 42.4287 207.885 42.5264C207.853 42.7542 207.836 42.9821 207.836 43.21C207.869 43.4378 207.934 43.6494 208.032 43.8447C207.967 43.9749 207.901 44.0889 207.836 44.1865C207.771 44.2842 207.804 44.3981 207.934 44.5283C207.934 44.6911 207.983 44.805 208.08 44.8701C208.178 44.9352 208.276 45.0003 208.373 45.0654C208.471 45.098 208.552 45.1468 208.618 45.2119C208.715 45.277 208.764 45.391 208.764 45.5537C208.764 45.749 208.683 45.9118 208.52 46.042C208.39 46.1396 208.259 46.2536 208.129 46.3838C208.357 46.9046 208.487 47.4255 208.52 47.9463C208.422 48.0114 208.325 48.0765 208.227 48.1416C208.129 48.1742 208.048 48.2555 207.983 48.3857C207.657 48.7438 207.527 48.9554 207.592 49.0205C207.69 49.0531 207.722 49.1182 207.69 49.2158C207.332 49.3786 207.023 49.6064 206.762 49.8994C206.502 50.1598 206.176 50.3226 205.786 50.3877C205.558 50.1924 205.346 50.0459 205.151 49.9482C204.988 49.8506 204.744 49.8343 204.418 49.8994C204.288 49.8018 204.207 49.7041 204.174 49.6064C204.142 49.4762 204.028 49.4111 203.832 49.4111C203.832 49.1507 203.767 48.9717 203.637 48.874C203.539 48.7764 203.442 48.6299 203.344 48.4346C203.409 48.109 203.393 47.7998 203.295 47.5068C203.23 47.1813 203.198 46.8558 203.198 46.5303C203.198 46.2048 203.214 45.8955 203.246 45.6025C203.312 45.277 203.344 44.9515 203.344 44.626C203.344 44.4632 203.312 44.3167 203.246 44.1865C203.214 44.0563 203.198 43.9098 203.198 43.7471C203.198 43.6494 203.214 43.5518 203.246 43.4541C203.312 43.3564 203.344 43.2588 203.344 43.1611C203.344 43.0635 203.312 42.9821 203.246 42.917C203.181 42.8193 203.133 42.7217 203.1 42.624C203.035 42.4287 202.986 42.2334 202.953 42.0381C202.953 41.8428 202.953 41.6475 202.953 41.4521C202.953 41.2894 202.986 41.1429 203.051 41.0127C203.149 40.8825 203.198 40.736 203.198 40.5732C203.198 40.2803 203.165 39.9873 203.1 39.6943C203.067 39.3688 203.051 39.0433 203.051 38.7178C203.051 38.4899 203.1 38.3109 203.198 38.1807C203.295 38.0179 203.344 37.8551 203.344 37.6924C203.344 37.432 203.312 37.1715 203.246 36.9111C203.214 36.6507 203.165 36.3903 203.1 36.1299C203.165 35.609 203.198 35.2835 203.198 35.1533C203.198 34.9906 203.214 34.8766 203.246 34.8115C203.312 34.7139 203.36 34.6325 203.393 34.5674C203.458 34.5023 203.491 34.3883 203.491 34.2256C203.491 34.0628 203.458 33.9001 203.393 33.7373C203.36 33.542 203.344 33.363 203.344 33.2002C203.344 32.8096 203.377 32.4352 203.442 32.0771C203.539 31.6865 203.588 31.2959 203.588 30.9053C203.588 30.7425 203.556 30.6123 203.491 30.5146C203.425 30.417 203.377 30.3031 203.344 30.1729C203.442 30.1077 203.474 30.0101 203.442 29.8799C203.409 29.7171 203.393 29.5869 203.393 29.4893C203.458 29.0661 203.442 28.8545 203.344 28.8545C203.246 28.8219 203.165 28.7731 203.1 28.708C203.165 28.3825 203.263 28.1383 203.393 27.9756C203.523 27.7803 203.605 27.4548 203.637 26.999C203.637 26.7712 203.621 26.5433 203.588 26.3154C203.588 26.055 203.653 25.8109 203.784 25.583C204.077 25.5179 204.272 25.3714 204.37 25.1436C204.467 24.8831 204.549 24.6227 204.614 24.3623C204.842 24.3949 205.037 24.2972 205.2 24.0693C205.33 24.1019 205.476 24.1019 205.639 24.0693C205.834 24.0042 206.046 23.9554 206.274 23.9229C206.502 23.8903 206.762 23.9066 207.055 23.9717C207.348 24.0042 207.674 24.1182 208.032 24.3135V24.8994C208.325 25.1273 208.504 25.4528 208.569 25.876C208.666 26.2666 208.78 26.6247 208.911 26.9502C208.976 27.113 209.073 27.3408 209.203 27.6338C209.366 27.9268 209.529 28.2197 209.692 28.5127C209.887 28.8057 210.082 29.0824 210.278 29.3428C210.473 29.5706 210.652 29.7171 210.815 29.7822C210.815 29.945 210.847 30.1077 210.912 30.2705C211.01 30.4007 211.059 30.5472 211.059 30.71C211.157 30.8402 211.238 30.9867 211.303 31.1494C211.368 31.2796 211.482 31.3936 211.645 31.4912C211.645 31.8167 211.726 32.0609 211.889 32.2236C212.084 32.3864 212.215 32.6143 212.28 32.9072C212.377 32.9723 212.475 33.0212 212.573 33.0537C212.703 33.0537 212.817 33.0863 212.914 33.1514C213.045 33.4769 213.24 33.7373 213.5 33.9326C213.761 34.1279 214.005 34.3558 214.233 34.6162C214.461 34.9092 214.672 35.2184 214.868 35.5439C215.063 35.8369 215.323 36.0811 215.649 36.2764C215.649 36.5368 215.681 36.7809 215.746 37.0088C215.844 37.2041 216.023 37.3343 216.284 37.3994C216.218 37.6273 216.267 37.79 216.43 37.8877C216.625 37.9528 216.772 38.0667 216.87 38.2295C216.804 38.4574 216.821 38.555 216.918 38.5225C217.016 38.4899 217.065 38.555 217.065 38.7178C217.325 38.9782 217.455 39.1735 217.455 39.3037C217.488 39.4014 217.537 39.4827 217.602 39.5479C217.732 39.7106 217.846 39.8734 217.944 40.0361C218.041 40.1663 218.139 40.3128 218.237 40.4756C218.367 40.6058 218.481 40.7523 218.578 40.915C218.676 41.0452 218.741 41.1104 218.774 41.1104C218.709 41.501 218.758 41.8265 218.92 42.0869C219.083 42.3473 219.278 42.5101 219.506 42.5752C219.734 42.6077 219.946 42.5101 220.141 42.2822C220.369 42.0218 220.515 41.5661 220.58 40.915C220.939 40.7523 221.134 40.5081 221.166 40.1826C221.199 39.8571 221.248 39.5316 221.313 39.2061C221.476 39.0758 221.59 38.9294 221.655 38.7666C221.752 38.6038 221.883 38.4736 222.045 38.376C222.11 38.2132 222.127 38.1156 222.094 38.083C222.062 38.0505 222.013 37.9691 221.948 37.8389C222.078 37.8063 222.143 37.7412 222.143 37.6436C222.175 37.5133 222.192 37.3994 222.192 37.3018C222.387 37.2692 222.468 37.1878 222.436 37.0576C222.436 36.9274 222.566 36.846 222.827 36.8135C222.761 36.5531 222.761 36.3903 222.827 36.3252C222.892 36.2275 222.924 36.0648 222.924 35.8369C223.054 35.7718 223.103 35.723 223.071 35.6904C223.071 35.6253 223.185 35.6253 223.412 35.6904C223.38 35.5928 223.364 35.4626 223.364 35.2998C223.396 35.137 223.364 35.0231 223.266 34.958C223.331 34.8929 223.429 34.8766 223.559 34.9092C223.689 34.9092 223.787 34.9092 223.852 34.9092C223.884 34.5511 223.998 34.2744 224.194 34.0791C224.422 33.8512 224.552 33.5583 224.584 33.2002C225.105 32.9398 225.447 32.6631 225.61 32.3701C225.773 32.0446 226 31.7842 226.293 31.5889C226.261 31.3936 226.261 31.2471 226.293 31.1494C226.358 31.0192 226.424 30.9215 226.489 30.8564C226.554 30.7588 226.619 30.6611 226.684 30.5635C226.749 30.4658 226.782 30.3356 226.782 30.1729C227.042 30.1077 227.205 29.9613 227.27 29.7334C227.335 29.473 227.498 29.2777 227.758 29.1475C227.693 28.9521 227.726 28.6592 227.856 28.2686C227.986 27.8454 228.181 27.6338 228.442 27.6338C228.474 27.1781 228.588 26.82 228.784 26.5596C228.979 26.2992 229.109 25.9736 229.174 25.583C229.37 25.583 229.565 25.5342 229.76 25.4365C229.825 25.1761 229.955 24.9971 230.151 24.8994C230.346 24.7692 230.493 24.5902 230.59 24.3623C231.144 24.2972 231.534 24.167 231.762 23.9717C231.99 23.7438 232.267 23.7113 232.592 23.874C232.722 24.0368 232.804 24.1507 232.836 24.2158C232.869 24.2809 232.853 24.4111 232.787 24.6064H233.422C233.487 24.7692 233.52 24.8994 233.52 24.9971C233.552 25.0622 233.552 25.1761 233.52 25.3389C233.585 25.4691 233.666 25.5667 233.764 25.6318C233.894 25.6969 233.976 25.762 234.008 25.8271C233.943 26.1852 233.959 26.5596 234.057 26.9502C234.155 27.3408 234.122 27.7152 233.959 28.0732C234.187 28.1383 234.269 28.3011 234.203 28.5615C234.171 28.8219 234.252 29.0173 234.448 29.1475C234.383 29.2451 234.334 29.3428 234.301 29.4404C234.269 29.5055 234.236 29.5869 234.203 29.6846C234.366 29.7171 234.448 29.766 234.448 29.8311C234.448 29.8636 234.431 29.9287 234.399 30.0264C234.399 30.0915 234.399 30.1891 234.399 30.3193C234.431 30.4495 234.545 30.6286 234.741 30.8564C234.741 30.9215 234.692 30.9704 234.594 31.0029C234.529 31.0355 234.496 31.1331 234.496 31.2959C234.562 31.361 234.61 31.4424 234.643 31.54C234.708 31.6377 234.773 31.7191 234.838 31.7842C234.675 32.1423 234.659 32.4189 234.789 32.6143C234.92 32.8096 234.985 33.0212 234.985 33.249C234.887 33.7048 234.871 33.9977 234.936 34.1279C235.034 34.2581 234.952 34.3721 234.692 34.4697C234.789 34.7952 234.871 35.137 234.936 35.4951C235.034 35.8206 235.082 36.1624 235.082 36.5205C235.082 36.6833 235.066 36.8623 235.034 37.0576C235.001 37.2204 234.985 37.3831 234.985 37.5459C234.985 37.7087 235.017 37.8389 235.082 37.9365C235.18 38.0342 235.229 38.1156 235.229 38.1807C235.229 38.2783 235.196 38.3434 235.131 38.376C235.066 38.4085 235.066 38.5062 235.131 38.6689C235.131 39.027 235.066 39.3525 234.936 39.6455C234.838 39.9059 234.92 40.1826 235.18 40.4756C235.082 40.7035 235.066 40.9313 235.131 41.1592C235.196 41.387 235.229 41.6312 235.229 41.8916C235.327 41.9567 235.392 42.0381 235.424 42.1357C235.489 42.2008 235.554 42.266 235.62 42.3311C235.489 42.5264 235.473 42.7054 235.571 42.8682C235.668 43.0309 235.717 43.21 235.717 43.4053C235.62 43.4704 235.571 43.6006 235.571 43.7959C235.603 43.9587 235.652 44.1377 235.717 44.333C235.815 44.5283 235.912 44.7236 236.01 44.9189C236.108 45.1143 236.173 45.2607 236.205 45.3584C236.173 45.8141 236.254 46.0908 236.45 46.1885C236.482 46.3187 236.498 46.4489 236.498 46.5791C236.498 46.7093 236.58 46.807 236.743 46.8721C236.677 47.0999 236.694 47.279 236.791 47.4092C236.889 47.5394 237.003 47.6859 237.133 47.8486C237.166 48.402 237.133 48.7764 237.036 48.9717C236.938 49.1344 236.97 49.3298 237.133 49.5576Z" fill="#232220"/>
</svg>
