<svg width="24" height="24" viewBox="0 0 24 24" fill="none" xmlns="http://www.w3.org/2000/svg">
<path d="M9.27466 23.9999H14.7256C17.1499 23.9999 19.115 21.488 19.115 18.3891C19.115 17.1149 18.7759 15.8789 18.1531 14.884L15.6897 10.9478C15.2784 10.2907 14.7569 9.76035 14.1636 9.39584C13.5703 9.03134 12.9205 8.84207 12.2622 8.84204H11.7383C11.08 8.84207 10.4302 9.03134 9.83693 9.39584C9.24363 9.76035 8.72207 10.2907 8.31083 10.9478L5.84719 14.884C5.2245 15.8788 4.88525 17.115 4.88525 18.3891C4.88525 21.488 6.85038 23.9999 9.27466 23.9999ZM7.23601 16.3046L9.69966 12.3681C9.94363 11.9764 10.2537 11.6603 10.6068 11.4434C10.9598 11.2265 11.3466 11.1145 11.7383 11.1157H12.2622C13.0595 11.1157 13.8026 11.5723 14.3009 12.3681L16.7643 16.3043C17.134 16.8965 17.3356 17.6314 17.3363 18.3891C17.3363 20.2293 16.1652 21.7262 14.7256 21.7262H9.27466C7.83508 21.7262 6.66398 20.2293 6.66398 18.3891C6.66398 17.6342 6.86722 16.8939 7.23601 16.3046Z" fill="black"/>
<path d="M5.58151 11.0788C5.73758 11.979 5.59934 12.8047 5.28316 13.4082C4.96704 14.0116 4.50029 14.3546 3.99205 14.424C3.48382 14.4935 2.92249 14.291 2.41659 13.7999C1.91058 13.3087 1.49903 12.5581 1.34296 11.6579C1.18689 10.7578 1.32513 9.93209 1.64131 9.32854C1.95743 8.72511 2.42418 8.38216 2.93242 8.31272C3.44065 8.24328 4.00198 8.44577 4.50788 8.93689C5.01389 9.4281 5.42544 10.1787 5.58151 11.0788Z" stroke="black" stroke-width="1.4"/>
<path d="M22.6573 11.658C22.5012 12.5581 22.0897 13.3087 21.5837 13.7999C21.0778 14.291 20.5165 14.4935 20.0082 14.4241C19.5 14.3547 19.0332 14.0117 18.7171 13.4083C18.4009 12.8047 18.2627 11.979 18.4187 11.0789C18.5748 10.1788 18.9863 9.42817 19.4923 8.93695C19.9982 8.44582 20.5595 8.24333 21.0678 8.31276C21.576 8.3822 22.0428 8.72514 22.3589 9.32857C22.6751 9.93211 22.8133 10.7578 22.6573 11.658Z" stroke="black" stroke-width="1.4"/>
<path d="M18.0905 4.51796C17.8635 6.51476 16.4617 7.72348 15.2448 7.61446C14.0279 7.50543 12.9265 6.07244 13.1535 4.07564C13.3806 2.07884 14.7823 0.870116 15.9992 0.97914C17.2161 1.08816 18.3176 2.52115 18.0905 4.51796Z" stroke="black" stroke-width="1.4"/>
<path d="M10.9729 4.07782C11.2 6.07656 10.0986 7.50977 8.88309 7.61861C7.66753 7.72746 6.26587 6.51838 6.03875 4.51963C5.81163 2.52088 6.91303 1.08768 8.12858 0.978837C9.34414 0.869994 10.7458 2.07907 10.9729 4.07782Z" stroke="black" stroke-width="1.4"/>
<path d="M9.27466 23.9999H14.7256C17.1499 23.9999 19.115 21.488 19.115 18.3891C19.115 17.1149 18.7759 15.8789 18.1531 14.884L15.6897 10.9478C15.2784 10.2907 14.7569 9.76035 14.1636 9.39584C13.5703 9.03134 12.9205 8.84207 12.2622 8.84204H11.7383C11.08 8.84207 10.4302 9.03134 9.83693 9.39584C9.24363 9.76035 8.72207 10.2907 8.31083 10.9478L5.84719 14.884C5.2245 15.8788 4.88525 17.115 4.88525 18.3891C4.88525 21.488 6.85038 23.9999 9.27466 23.9999ZM7.23601 16.3046L9.69966 12.3681C9.94363 11.9764 10.2537 11.6603 10.6068 11.4434C10.9598 11.2265 11.3466 11.1145 11.7383 11.1157H12.2622C13.0595 11.1157 13.8026 11.5723 14.3009 12.3681L16.7643 16.3043C17.134 16.8965 17.3356 17.6314 17.3363 18.3891C17.3363 20.2293 16.1652 21.7262 14.7256 21.7262H9.27466C7.83508 21.7262 6.66398 20.2293 6.66398 18.3891C6.66398 17.6342 6.86722 16.8939 7.23601 16.3046Z" fill="black"/>
<path d="M5.77967 11.0518C5.94239 11.9902 5.80008 12.8598 5.46237 13.5044C5.12471 14.149 4.61117 14.5412 4.02622 14.6211C3.44127 14.701 2.81864 14.4641 2.27826 13.9395C1.73782 13.4148 1.30752 12.6235 1.1448 11.685C0.982085 10.7466 1.12439 9.87695 1.4621 9.23232C1.79976 8.58777 2.3133 8.19558 2.89825 8.11566C3.4832 8.03574 4.10583 8.2727 4.64621 8.79728C5.18665 9.32193 5.61695 10.1133 5.77967 11.0518Z" fill="black" stroke="black"/>
<path d="M22.8554 11.685C22.6927 12.6235 22.2624 13.4149 21.722 13.9395C21.1816 14.4641 20.559 14.7011 19.9741 14.6212C19.3891 14.5412 18.8756 14.149 18.5379 13.5045C18.2002 12.8599 18.0579 11.9903 18.2206 11.0518C18.3833 10.1134 18.8136 9.32199 19.354 8.79734C19.8944 8.27275 20.517 8.03579 21.1019 8.1157C21.6869 8.19562 22.2004 8.5878 22.5381 9.23234C22.8758 9.87697 23.0181 10.7466 22.8554 11.685Z" fill="black" stroke="black"/>
<path d="M18.2897 4.5358C18.0556 6.59535 16.591 7.9358 15.2222 7.81318C13.8535 7.69055 12.7202 6.11734 12.9543 4.05779C13.1885 1.99824 14.6531 0.657792 16.0218 0.78042C17.3906 0.903049 18.5239 2.47625 18.2897 4.5358Z" fill="black" stroke="black"/>
<path d="M11.1721 4.05998C11.4064 6.12127 10.2732 7.69488 8.90567 7.81733C7.5381 7.93979 6.07378 6.59876 5.83955 4.53747C5.60532 2.47618 6.73844 0.902571 8.106 0.780116C9.47357 0.657662 10.9379 1.99869 11.1721 4.05998Z" fill="black" stroke="black"/>
<ellipse cx="3.51103" cy="6.2231" rx="3.51103" ry="6.2231" transform="matrix(0.949256 -0.314504 0.387592 0.921831 7.66992 11.1635)" fill="black"/>
<ellipse cx="3.48312" cy="6.28179" rx="3.48312" ry="6.28179" transform="matrix(0.916347 0.400384 -0.484934 0.874551 10.3618 10.1052)" fill="black"/>
<ellipse cx="12.0952" cy="20.2105" rx="4.98042" ry="2.52631" fill="black"/>
</svg>
